solid ASCII
  facet normal 9.932384e-01 -1.160929e-01 0.000000e+00
    outer loop
      vertex   2.498882e+01 -5.981233e+01 1.693408e+01
      vertex   2.498882e+01 -5.981233e+01 2.593408e+01
      vertex   2.485000e+01 -6.100000e+01 1.693408e+01
    endloop
  endfacet
  facet normal 9.932384e-01 -1.160929e-01 0.000000e+00
    outer loop
      vertex   2.485000e+01 -6.100000e+01 1.693408e+01
      vertex   2.498882e+01 -5.981233e+01 2.593408e+01
      vertex   2.485000e+01 -6.100000e+01 2.593408e+01
    endloop
  endfacet
  facet normal 9.932384e-01 1.160929e-01 -0.000000e+00
    outer loop
      vertex   2.485000e+01 -6.100000e+01 1.693408e+01
      vertex   2.485000e+01 -6.100000e+01 2.593408e+01
      vertex   2.498882e+01 -6.218767e+01 1.693408e+01
    endloop
  endfacet
  facet normal 9.932384e-01 1.160929e-01 -0.000000e+00
    outer loop
      vertex   2.498882e+01 -6.218767e+01 1.693408e+01
      vertex   2.485000e+01 -6.100000e+01 2.593408e+01
      vertex   2.498882e+01 -6.218767e+01 2.593408e+01
    endloop
  endfacet
  facet normal 9.396926e-01 3.420201e-01 -0.000000e+00
    outer loop
      vertex   2.498882e+01 -6.218767e+01 1.693408e+01
      vertex   2.498882e+01 -6.218767e+01 2.593408e+01
      vertex   2.539779e+01 -6.331132e+01 1.693408e+01
    endloop
  endfacet
  facet normal 9.396926e-01 3.420201e-01 -0.000000e+00
    outer loop
      vertex   2.539779e+01 -6.331132e+01 1.693408e+01
      vertex   2.498882e+01 -6.218767e+01 2.593408e+01
      vertex   2.539779e+01 -6.331132e+01 2.593408e+01
    endloop
  endfacet
  facet normal 8.354878e-01 5.495090e-01 -0.000000e+00
    outer loop
      vertex   2.539779e+01 -6.331132e+01 1.693408e+01
      vertex   2.539779e+01 -6.331132e+01 2.593408e+01
      vertex   2.605487e+01 -6.431036e+01 1.693408e+01
    endloop
  endfacet
  facet normal 8.354878e-01 5.495090e-01 -0.000000e+00
    outer loop
      vertex   2.605487e+01 -6.431036e+01 1.693408e+01
      vertex   2.539779e+01 -6.331132e+01 2.593408e+01
      vertex   2.605487e+01 -6.431036e+01 2.593408e+01
    endloop
  endfacet
  facet normal 6.862416e-01 7.273736e-01 -0.000000e+00
    outer loop
      vertex   2.605487e+01 -6.431036e+01 1.693408e+01
      vertex   2.605487e+01 -6.431036e+01 2.593408e+01
      vertex   2.692463e+01 -6.513093e+01 1.693408e+01
    endloop
  endfacet
  facet normal 6.862416e-01 7.273736e-01 -0.000000e+00
    outer loop
      vertex   2.692463e+01 -6.513093e+01 1.693408e+01
      vertex   2.605487e+01 -6.431036e+01 2.593408e+01
      vertex   2.692463e+01 -6.513093e+01 2.593408e+01
    endloop
  endfacet
  facet normal 5.000000e-01 8.660254e-01 -0.000000e+00
    outer loop
      vertex   2.692463e+01 -6.513093e+01 1.693408e+01
      vertex   2.692463e+01 -6.513093e+01 2.593408e+01
      vertex   2.796019e+01 -6.572881e+01 1.693408e+01
    endloop
  endfacet
  facet normal 5.000000e-01 8.660254e-01 -0.000000e+00
    outer loop
      vertex   2.796019e+01 -6.572881e+01 1.693408e+01
      vertex   2.692463e+01 -6.513093e+01 2.593408e+01
      vertex   2.796019e+01 -6.572881e+01 2.593408e+01
    endloop
  endfacet
  facet normal 2.868032e-01 9.579895e-01 -0.000000e+00
    outer loop
      vertex   2.796019e+01 -6.572881e+01 1.693408e+01
      vertex   2.796019e+01 -6.572881e+01 2.593408e+01
      vertex   2.910571e+01 -6.607176e+01 1.693408e+01
    endloop
  endfacet
  facet normal 2.868032e-01 9.579895e-01 -0.000000e+00
    outer loop
      vertex   2.910571e+01 -6.607176e+01 1.693408e+01
      vertex   2.796019e+01 -6.572881e+01 2.593408e+01
      vertex   2.910571e+01 -6.607176e+01 2.593408e+01
    endloop
  endfacet
  facet normal 5.814483e-02 9.983082e-01 -0.000000e+00
    outer loop
      vertex   2.910571e+01 -6.607176e+01 1.693408e+01
      vertex   2.910571e+01 -6.607176e+01 2.593408e+01
      vertex   3.029945e+01 -6.614129e+01 1.693408e+01
    endloop
  endfacet
  facet normal 5.814483e-02 9.983082e-01 -0.000000e+00
    outer loop
      vertex   3.029945e+01 -6.614129e+01 1.693408e+01
      vertex   2.910571e+01 -6.607176e+01 2.593408e+01
      vertex   3.029945e+01 -6.614129e+01 2.593408e+01
    endloop
  endfacet
  facet normal -1.736482e-01 9.848078e-01 0.000000e+00
    outer loop
      vertex   3.029945e+01 -6.614129e+01 1.693408e+01
      vertex   3.029945e+01 -6.614129e+01 2.593408e+01
      vertex   3.147704e+01 -6.593365e+01 1.693408e+01
    endloop
  endfacet
  facet normal -1.736482e-01 9.848078e-01 6.854692e-17
    outer loop
      vertex   3.147704e+01 -6.593365e+01 1.693408e+01
      vertex   3.029945e+01 -6.614129e+01 2.593408e+01
      vertex   3.147704e+01 -6.593365e+01 2.593408e+01
    endloop
  endfacet
  facet normal -3.960798e-01 9.182161e-01 1.563509e-16
    outer loop
      vertex   3.147704e+01 -6.593365e+01 1.693408e+01
      vertex   3.147704e+01 -6.593365e+01 2.593408e+01
      vertex   3.257500e+01 -6.546003e+01 1.693408e+01
    endloop
  endfacet
  facet normal -3.960798e-01 9.182161e-01 3.127018e-16
    outer loop
      vertex   3.257500e+01 -6.546003e+01 1.693408e+01
      vertex   3.147704e+01 -6.593365e+01 2.593408e+01
      vertex   3.257500e+01 -6.546003e+01 2.593408e+01
    endloop
  endfacet
  facet normal -5.971586e-01 8.021232e-01 4.714519e-16
    outer loop
      vertex   3.257500e+01 -6.546003e+01 1.693408e+01
      vertex   3.257500e+01 -6.546003e+01 2.593408e+01
      vertex   3.353414e+01 -6.474597e+01 1.693408e+01
    endloop
  endfacet
  facet normal -5.971586e-01 8.021232e-01 0.000000e+00
    outer loop
      vertex   3.353414e+01 -6.474597e+01 1.693408e+01
      vertex   3.257500e+01 -6.546003e+01 2.593408e+01
      vertex   3.353414e+01 -6.474597e+01 2.593408e+01
    endloop
  endfacet
  facet normal -7.660444e-01 6.427876e-01 0.000000e+00
    outer loop
      vertex   3.353414e+01 -6.474597e+01 1.693408e+01
      vertex   3.353414e+01 -6.474597e+01 2.593408e+01
      vertex   3.430276e+01 -6.382997e+01 1.693408e+01
    endloop
  endfacet
  facet normal -7.660444e-01 6.427876e-01 0.000000e+00
    outer loop
      vertex   3.430276e+01 -6.382997e+01 1.693408e+01
      vertex   3.353414e+01 -6.474597e+01 2.593408e+01
      vertex   3.430276e+01 -6.382997e+01 2.593408e+01
    endloop
  endfacet
  facet normal -8.936326e-01 4.487992e-01 0.000000e+00
    outer loop
      vertex   3.430276e+01 -6.382997e+01 1.693408e+01
      vertex   3.430276e+01 -6.382997e+01 2.593408e+01
      vertex   3.483942e+01 -6.276140e+01 1.693408e+01
    endloop
  endfacet
  facet normal -8.936326e-01 4.487992e-01 0.000000e+00
    outer loop
      vertex   3.483942e+01 -6.276140e+01 1.693408e+01
      vertex   3.430276e+01 -6.382997e+01 2.593408e+01
      vertex   3.483942e+01 -6.276140e+01 2.593408e+01
    endloop
  endfacet
  facet normal -9.730449e-01 2.306159e-01 0.000000e+00
    outer loop
      vertex   3.483942e+01 -6.276140e+01 1.693408e+01
      vertex   3.483942e+01 -6.276140e+01 2.593408e+01
      vertex   3.511518e+01 -6.159788e+01 1.693408e+01
    endloop
  endfacet
  facet normal -9.730449e-01 2.306159e-01 0.000000e+00
    outer loop
      vertex   3.511518e+01 -6.159788e+01 1.693408e+01
      vertex   3.483942e+01 -6.276140e+01 2.593408e+01
      vertex   3.511518e+01 -6.159788e+01 2.593408e+01
    endloop
  endfacet
  facet normal -1.000000e+00 0.000000e+00 0.000000e+00
    outer loop
      vertex   3.511518e+01 -6.159788e+01 1.693408e+01
      vertex   3.511518e+01 -6.159788e+01 2.593408e+01
      vertex   3.511518e+01 -6.040212e+01 1.693408e+01
    endloop
  endfacet
  facet normal -1.000000e+00 0.000000e+00 0.000000e+00
    outer loop
      vertex   3.511518e+01 -6.040212e+01 1.693408e+01
      vertex   3.511518e+01 -6.159788e+01 2.593408e+01
      vertex   3.511518e+01 -6.040212e+01 2.593408e+01
    endloop
  endfacet
  facet normal -9.730449e-01 -2.306159e-01 0.000000e+00
    outer loop
      vertex   3.511518e+01 -6.040212e+01 1.693408e+01
      vertex   3.511518e+01 -6.040212e+01 2.593408e+01
      vertex   3.483942e+01 -5.923860e+01 1.693408e+01
    endloop
  endfacet
  facet normal -9.730449e-01 -2.306159e-01 0.000000e+00
    outer loop
      vertex   3.483942e+01 -5.923860e+01 1.693408e+01
      vertex   3.511518e+01 -6.040212e+01 2.593408e+01
      vertex   3.483942e+01 -5.923860e+01 2.593408e+01
    endloop
  endfacet
  facet normal -8.936326e-01 -4.487992e-01 0.000000e+00
    outer loop
      vertex   3.483942e+01 -5.923860e+01 1.693408e+01
      vertex   3.483942e+01 -5.923860e+01 2.593408e+01
      vertex   3.430276e+01 -5.817003e+01 1.693408e+01
    endloop
  endfacet
  facet normal -8.936326e-01 -4.487992e-01 0.000000e+00
    outer loop
      vertex   3.430276e+01 -5.817003e+01 1.693408e+01
      vertex   3.483942e+01 -5.923860e+01 2.593408e+01
      vertex   3.430276e+01 -5.817003e+01 2.593408e+01
    endloop
  endfacet
  facet normal -7.660444e-01 -6.427876e-01 0.000000e+00
    outer loop
      vertex   3.430276e+01 -5.817003e+01 1.693408e+01
      vertex   3.430276e+01 -5.817003e+01 2.593408e+01
      vertex   3.353414e+01 -5.725403e+01 1.693408e+01
    endloop
  endfacet
  facet normal -7.660444e-01 -6.427876e-01 0.000000e+00
    outer loop
      vertex   3.353414e+01 -5.725403e+01 1.693408e+01
      vertex   3.430276e+01 -5.817003e+01 2.593408e+01
      vertex   3.353414e+01 -5.725403e+01 2.593408e+01
    endloop
  endfacet
  facet normal -5.971586e-01 -8.021232e-01 0.000000e+00
    outer loop
      vertex   3.353414e+01 -5.725403e+01 1.693408e+01
      vertex   3.353414e+01 -5.725403e+01 2.593408e+01
      vertex   3.257500e+01 -5.653997e+01 1.693408e+01
    endloop
  endfacet
  facet normal -5.971586e-01 -8.021232e-01 -4.714519e-16
    outer loop
      vertex   3.257500e+01 -5.653997e+01 1.693408e+01
      vertex   3.353414e+01 -5.725403e+01 2.593408e+01
      vertex   3.257500e+01 -5.653997e+01 2.593408e+01
    endloop
  endfacet
  facet normal -3.960798e-01 -9.182161e-01 -3.127018e-16
    outer loop
      vertex   3.257500e+01 -5.653997e+01 1.693408e+01
      vertex   3.257500e+01 -5.653997e+01 2.593408e+01
      vertex   3.147704e+01 -5.606635e+01 1.693408e+01
    endloop
  endfacet
  facet normal -3.960798e-01 -9.182161e-01 -1.563509e-16
    outer loop
      vertex   3.147704e+01 -5.606635e+01 1.693408e+01
      vertex   3.257500e+01 -5.653997e+01 2.593408e+01
      vertex   3.147704e+01 -5.606635e+01 2.593408e+01
    endloop
  endfacet
  facet normal -1.736482e-01 -9.848078e-01 -6.854692e-17
    outer loop
      vertex   3.147704e+01 -5.606635e+01 1.693408e+01
      vertex   3.147704e+01 -5.606635e+01 2.593408e+01
      vertex   3.029945e+01 -5.585871e+01 1.693408e+01
    endloop
  endfacet
  facet normal -1.736482e-01 -9.848078e-01 0.000000e+00
    outer loop
      vertex   3.029945e+01 -5.585871e+01 1.693408e+01
      vertex   3.147704e+01 -5.606635e+01 2.593408e+01
      vertex   3.029945e+01 -5.585871e+01 2.593408e+01
    endloop
  endfacet
  facet normal 5.814483e-02 -9.983082e-01 0.000000e+00
    outer loop
      vertex   3.029945e+01 -5.585871e+01 1.693408e+01
      vertex   3.029945e+01 -5.585871e+01 2.593408e+01
      vertex   2.910571e+01 -5.592824e+01 1.693408e+01
    endloop
  endfacet
  facet normal 5.814483e-02 -9.983082e-01 0.000000e+00
    outer loop
      vertex   2.910571e+01 -5.592824e+01 1.693408e+01
      vertex   3.029945e+01 -5.585871e+01 2.593408e+01
      vertex   2.910571e+01 -5.592824e+01 2.593408e+01
    endloop
  endfacet
  facet normal 2.868032e-01 -9.579895e-01 0.000000e+00
    outer loop
      vertex   2.910571e+01 -5.592824e+01 1.693408e+01
      vertex   2.910571e+01 -5.592824e+01 2.593408e+01
      vertex   2.796019e+01 -5.627119e+01 1.693408e+01
    endloop
  endfacet
  facet normal 2.868032e-01 -9.579895e-01 0.000000e+00
    outer loop
      vertex   2.796019e+01 -5.627119e+01 1.693408e+01
      vertex   2.910571e+01 -5.592824e+01 2.593408e+01
      vertex   2.796019e+01 -5.627119e+01 2.593408e+01
    endloop
  endfacet
  facet normal 5.000000e-01 -8.660254e-01 0.000000e+00
    outer loop
      vertex   2.796019e+01 -5.627119e+01 1.693408e+01
      vertex   2.796019e+01 -5.627119e+01 2.593408e+01
      vertex   2.692463e+01 -5.686907e+01 1.693408e+01
    endloop
  endfacet
  facet normal 5.000000e-01 -8.660254e-01 0.000000e+00
    outer loop
      vertex   2.692463e+01 -5.686907e+01 1.693408e+01
      vertex   2.796019e+01 -5.627119e+01 2.593408e+01
      vertex   2.692463e+01 -5.686907e+01 2.593408e+01
    endloop
  endfacet
  facet normal 6.862416e-01 -7.273736e-01 0.000000e+00
    outer loop
      vertex   2.692463e+01 -5.686907e+01 1.693408e+01
      vertex   2.692463e+01 -5.686907e+01 2.593408e+01
      vertex   2.605487e+01 -5.768964e+01 1.693408e+01
    endloop
  endfacet
  facet normal 6.862416e-01 -7.273736e-01 0.000000e+00
    outer loop
      vertex   2.605487e+01 -5.768964e+01 1.693408e+01
      vertex   2.692463e+01 -5.686907e+01 2.593408e+01
      vertex   2.605487e+01 -5.768964e+01 2.593408e+01
    endloop
  endfacet
  facet normal 8.354878e-01 -5.495090e-01 0.000000e+00
    outer loop
      vertex   2.605487e+01 -5.768964e+01 1.693408e+01
      vertex   2.605487e+01 -5.768964e+01 2.593408e+01
      vertex   2.539779e+01 -5.868868e+01 1.693408e+01
    endloop
  endfacet
  facet normal 8.354878e-01 -5.495090e-01 0.000000e+00
    outer loop
      vertex   2.539779e+01 -5.868868e+01 1.693408e+01
      vertex   2.605487e+01 -5.768964e+01 2.593408e+01
      vertex   2.539779e+01 -5.868868e+01 2.593408e+01
    endloop
  endfacet
  facet normal 9.396926e-01 -3.420201e-01 0.000000e+00
    outer loop
      vertex   2.539779e+01 -5.868868e+01 1.693408e+01
      vertex   2.539779e+01 -5.868868e+01 2.593408e+01
      vertex   2.498882e+01 -5.981233e+01 1.693408e+01
    endloop
  endfacet
  facet normal 9.396926e-01 -3.420201e-01 0.000000e+00
    outer loop
      vertex   2.498882e+01 -5.981233e+01 1.693408e+01
      vertex   2.539779e+01 -5.868868e+01 2.593408e+01
      vertex   2.498882e+01 -5.981233e+01 2.593408e+01
    endloop
  endfacet
  facet normal 9.932384e-01 -1.160929e-01 0.000000e+00
    outer loop
      vertex   6.498882e+01 -5.981233e+01 1.693408e+01
      vertex   6.498882e+01 -5.981233e+01 2.593408e+01
      vertex   6.485000e+01 -6.100000e+01 1.693408e+01
    endloop
  endfacet
  facet normal 9.932384e-01 -1.160929e-01 0.000000e+00
    outer loop
      vertex   6.485000e+01 -6.100000e+01 1.693408e+01
      vertex   6.498882e+01 -5.981233e+01 2.593408e+01
      vertex   6.485000e+01 -6.100000e+01 2.593408e+01
    endloop
  endfacet
  facet normal 9.932384e-01 1.160929e-01 -0.000000e+00
    outer loop
      vertex   6.485000e+01 -6.100000e+01 1.693408e+01
      vertex   6.485000e+01 -6.100000e+01 2.593408e+01
      vertex   6.498882e+01 -6.218767e+01 1.693408e+01
    endloop
  endfacet
  facet normal 9.932384e-01 1.160929e-01 -0.000000e+00
    outer loop
      vertex   6.498882e+01 -6.218767e+01 1.693408e+01
      vertex   6.485000e+01 -6.100000e+01 2.593408e+01
      vertex   6.498882e+01 -6.218767e+01 2.593408e+01
    endloop
  endfacet
  facet normal 9.396926e-01 3.420201e-01 -0.000000e+00
    outer loop
      vertex   6.498882e+01 -6.218767e+01 1.693408e+01
      vertex   6.498882e+01 -6.218767e+01 2.593408e+01
      vertex   6.539779e+01 -6.331132e+01 1.693408e+01
    endloop
  endfacet
  facet normal 9.396926e-01 3.420201e-01 -0.000000e+00
    outer loop
      vertex   6.539779e+01 -6.331132e+01 1.693408e+01
      vertex   6.498882e+01 -6.218767e+01 2.593408e+01
      vertex   6.539779e+01 -6.331132e+01 2.593408e+01
    endloop
  endfacet
  facet normal 8.354878e-01 5.495090e-01 -0.000000e+00
    outer loop
      vertex   6.539779e+01 -6.331132e+01 1.693408e+01
      vertex   6.539779e+01 -6.331132e+01 2.593408e+01
      vertex   6.605487e+01 -6.431036e+01 1.693408e+01
    endloop
  endfacet
  facet normal 8.354878e-01 5.495090e-01 -0.000000e+00
    outer loop
      vertex   6.605487e+01 -6.431036e+01 1.693408e+01
      vertex   6.539779e+01 -6.331132e+01 2.593408e+01
      vertex   6.605487e+01 -6.431036e+01 2.593408e+01
    endloop
  endfacet
  facet normal 6.862416e-01 7.273736e-01 -0.000000e+00
    outer loop
      vertex   6.605487e+01 -6.431036e+01 1.693408e+01
      vertex   6.605487e+01 -6.431036e+01 2.593408e+01
      vertex   6.692463e+01 -6.513093e+01 1.693408e+01
    endloop
  endfacet
  facet normal 6.862416e-01 7.273736e-01 -0.000000e+00
    outer loop
      vertex   6.692463e+01 -6.513093e+01 1.693408e+01
      vertex   6.605487e+01 -6.431036e+01 2.593408e+01
      vertex   6.692463e+01 -6.513093e+01 2.593408e+01
    endloop
  endfacet
  facet normal 5.000000e-01 8.660254e-01 -0.000000e+00
    outer loop
      vertex   6.692463e+01 -6.513093e+01 1.693408e+01
      vertex   6.692463e+01 -6.513093e+01 2.593408e+01
      vertex   6.796019e+01 -6.572881e+01 1.693408e+01
    endloop
  endfacet
  facet normal 5.000000e-01 8.660254e-01 -0.000000e+00
    outer loop
      vertex   6.796019e+01 -6.572881e+01 1.693408e+01
      vertex   6.692463e+01 -6.513093e+01 2.593408e+01
      vertex   6.796019e+01 -6.572881e+01 2.593408e+01
    endloop
  endfacet
  facet normal 2.868032e-01 9.579895e-01 -0.000000e+00
    outer loop
      vertex   6.796019e+01 -6.572881e+01 1.693408e+01
      vertex   6.796019e+01 -6.572881e+01 2.593408e+01
      vertex   6.910571e+01 -6.607176e+01 1.693408e+01
    endloop
  endfacet
  facet normal 2.868032e-01 9.579895e-01 -0.000000e+00
    outer loop
      vertex   6.910571e+01 -6.607176e+01 1.693408e+01
      vertex   6.796019e+01 -6.572881e+01 2.593408e+01
      vertex   6.910571e+01 -6.607176e+01 2.593408e+01
    endloop
  endfacet
  facet normal 5.814483e-02 9.983082e-01 -0.000000e+00
    outer loop
      vertex   6.910571e+01 -6.607176e+01 1.693408e+01
      vertex   6.910571e+01 -6.607176e+01 2.593408e+01
      vertex   7.029945e+01 -6.614129e+01 1.693408e+01
    endloop
  endfacet
  facet normal 5.814483e-02 9.983082e-01 -0.000000e+00
    outer loop
      vertex   7.029945e+01 -6.614129e+01 1.693408e+01
      vertex   6.910571e+01 -6.607176e+01 2.593408e+01
      vertex   7.029945e+01 -6.614129e+01 2.593408e+01
    endloop
  endfacet
  facet normal -1.736482e-01 9.848078e-01 0.000000e+00
    outer loop
      vertex   7.029945e+01 -6.614129e+01 1.693408e+01
      vertex   7.029945e+01 -6.614129e+01 2.593408e+01
      vertex   7.147704e+01 -6.593365e+01 1.693408e+01
    endloop
  endfacet
  facet normal -1.736482e-01 9.848078e-01 0.000000e+00
    outer loop
      vertex   7.147704e+01 -6.593365e+01 1.693408e+01
      vertex   7.029945e+01 -6.614129e+01 2.593408e+01
      vertex   7.147704e+01 -6.593365e+01 2.593408e+01
    endloop
  endfacet
  facet normal -3.960798e-01 9.182161e-01 0.000000e+00
    outer loop
      vertex   7.147704e+01 -6.593365e+01 1.693408e+01
      vertex   7.147704e+01 -6.593365e+01 2.593408e+01
      vertex   7.257500e+01 -6.546003e+01 1.693408e+01
    endloop
  endfacet
  facet normal -3.960798e-01 9.182161e-01 0.000000e+00
    outer loop
      vertex   7.257500e+01 -6.546003e+01 1.693408e+01
      vertex   7.147704e+01 -6.593365e+01 2.593408e+01
      vertex   7.257500e+01 -6.546003e+01 2.593408e+01
    endloop
  endfacet
  facet normal -5.971586e-01 8.021232e-01 0.000000e+00
    outer loop
      vertex   7.257500e+01 -6.546003e+01 1.693408e+01
      vertex   7.257500e+01 -6.546003e+01 2.593408e+01
      vertex   7.353414e+01 -6.474597e+01 1.693408e+01
    endloop
  endfacet
  facet normal -5.971586e-01 8.021232e-01 0.000000e+00
    outer loop
      vertex   7.353414e+01 -6.474597e+01 1.693408e+01
      vertex   7.257500e+01 -6.546003e+01 2.593408e+01
      vertex   7.353414e+01 -6.474597e+01 2.593408e+01
    endloop
  endfacet
  facet normal -7.660444e-01 6.427876e-01 0.000000e+00
    outer loop
      vertex   7.353414e+01 -6.474597e+01 1.693408e+01
      vertex   7.353414e+01 -6.474597e+01 2.593408e+01
      vertex   7.430276e+01 -6.382997e+01 1.693408e+01
    endloop
  endfacet
  facet normal -7.660444e-01 6.427876e-01 0.000000e+00
    outer loop
      vertex   7.430276e+01 -6.382997e+01 1.693408e+01
      vertex   7.353414e+01 -6.474597e+01 2.593408e+01
      vertex   7.430276e+01 -6.382997e+01 2.593408e+01
    endloop
  endfacet
  facet normal -8.936326e-01 4.487992e-01 0.000000e+00
    outer loop
      vertex   7.430276e+01 -6.382997e+01 1.693408e+01
      vertex   7.430276e+01 -6.382997e+01 2.593408e+01
      vertex   7.483942e+01 -6.276140e+01 1.693408e+01
    endloop
  endfacet
  facet normal -8.936326e-01 4.487992e-01 0.000000e+00
    outer loop
      vertex   7.483942e+01 -6.276140e+01 1.693408e+01
      vertex   7.430276e+01 -6.382997e+01 2.593408e+01
      vertex   7.483942e+01 -6.276140e+01 2.593408e+01
    endloop
  endfacet
  facet normal -9.730449e-01 2.306159e-01 0.000000e+00
    outer loop
      vertex   7.483942e+01 -6.276140e+01 1.693408e+01
      vertex   7.483942e+01 -6.276140e+01 2.593408e+01
      vertex   7.511518e+01 -6.159788e+01 1.693408e+01
    endloop
  endfacet
  facet normal -9.730449e-01 2.306159e-01 0.000000e+00
    outer loop
      vertex   7.511518e+01 -6.159788e+01 1.693408e+01
      vertex   7.483942e+01 -6.276140e+01 2.593408e+01
      vertex   7.511518e+01 -6.159788e+01 2.593408e+01
    endloop
  endfacet
  facet normal -1.000000e+00 0.000000e+00 0.000000e+00
    outer loop
      vertex   7.511518e+01 -6.159788e+01 1.693408e+01
      vertex   7.511518e+01 -6.159788e+01 2.593408e+01
      vertex   7.511518e+01 -6.040212e+01 1.693408e+01
    endloop
  endfacet
  facet normal -1.000000e+00 0.000000e+00 0.000000e+00
    outer loop
      vertex   7.511518e+01 -6.040212e+01 1.693408e+01
      vertex   7.511518e+01 -6.159788e+01 2.593408e+01
      vertex   7.511518e+01 -6.040212e+01 2.593408e+01
    endloop
  endfacet
  facet normal -9.730449e-01 -2.306159e-01 0.000000e+00
    outer loop
      vertex   7.511518e+01 -6.040212e+01 1.693408e+01
      vertex   7.511518e+01 -6.040212e+01 2.593408e+01
      vertex   7.483942e+01 -5.923860e+01 1.693408e+01
    endloop
  endfacet
  facet normal -9.730449e-01 -2.306159e-01 0.000000e+00
    outer loop
      vertex   7.483942e+01 -5.923860e+01 1.693408e+01
      vertex   7.511518e+01 -6.040212e+01 2.593408e+01
      vertex   7.483942e+01 -5.923860e+01 2.593408e+01
    endloop
  endfacet
  facet normal -8.936326e-01 -4.487992e-01 0.000000e+00
    outer loop
      vertex   7.483942e+01 -5.923860e+01 1.693408e+01
      vertex   7.483942e+01 -5.923860e+01 2.593408e+01
      vertex   7.430276e+01 -5.817003e+01 1.693408e+01
    endloop
  endfacet
  facet normal -8.936326e-01 -4.487992e-01 0.000000e+00
    outer loop
      vertex   7.430276e+01 -5.817003e+01 1.693408e+01
      vertex   7.483942e+01 -5.923860e+01 2.593408e+01
      vertex   7.430276e+01 -5.817003e+01 2.593408e+01
    endloop
  endfacet
  facet normal -7.660444e-01 -6.427876e-01 0.000000e+00
    outer loop
      vertex   7.430276e+01 -5.817003e+01 1.693408e+01
      vertex   7.430276e+01 -5.817003e+01 2.593408e+01
      vertex   7.353414e+01 -5.725403e+01 1.693408e+01
    endloop
  endfacet
  facet normal -7.660444e-01 -6.427876e-01 0.000000e+00
    outer loop
      vertex   7.353414e+01 -5.725403e+01 1.693408e+01
      vertex   7.430276e+01 -5.817003e+01 2.593408e+01
      vertex   7.353414e+01 -5.725403e+01 2.593408e+01
    endloop
  endfacet
  facet normal -5.971586e-01 -8.021232e-01 0.000000e+00
    outer loop
      vertex   7.353414e+01 -5.725403e+01 1.693408e+01
      vertex   7.353414e+01 -5.725403e+01 2.593408e+01
      vertex   7.257500e+01 -5.653997e+01 1.693408e+01
    endloop
  endfacet
  facet normal -5.971586e-01 -8.021232e-01 0.000000e+00
    outer loop
      vertex   7.257500e+01 -5.653997e+01 1.693408e+01
      vertex   7.353414e+01 -5.725403e+01 2.593408e+01
      vertex   7.257500e+01 -5.653997e+01 2.593408e+01
    endloop
  endfacet
  facet normal -3.960798e-01 -9.182161e-01 0.000000e+00
    outer loop
      vertex   7.257500e+01 -5.653997e+01 1.693408e+01
      vertex   7.257500e+01 -5.653997e+01 2.593408e+01
      vertex   7.147704e+01 -5.606635e+01 1.693408e+01
    endloop
  endfacet
  facet normal -3.960798e-01 -9.182161e-01 0.000000e+00
    outer loop
      vertex   7.147704e+01 -5.606635e+01 1.693408e+01
      vertex   7.257500e+01 -5.653997e+01 2.593408e+01
      vertex   7.147704e+01 -5.606635e+01 2.593408e+01
    endloop
  endfacet
  facet normal -1.736482e-01 -9.848078e-01 0.000000e+00
    outer loop
      vertex   7.147704e+01 -5.606635e+01 1.693408e+01
      vertex   7.147704e+01 -5.606635e+01 2.593408e+01
      vertex   7.029945e+01 -5.585871e+01 1.693408e+01
    endloop
  endfacet
  facet normal -1.736482e-01 -9.848078e-01 0.000000e+00
    outer loop
      vertex   7.029945e+01 -5.585871e+01 1.693408e+01
      vertex   7.147704e+01 -5.606635e+01 2.593408e+01
      vertex   7.029945e+01 -5.585871e+01 2.593408e+01
    endloop
  endfacet
  facet normal 5.814483e-02 -9.983082e-01 0.000000e+00
    outer loop
      vertex   7.029945e+01 -5.585871e+01 1.693408e+01
      vertex   7.029945e+01 -5.585871e+01 2.593408e+01
      vertex   6.910571e+01 -5.592824e+01 1.693408e+01
    endloop
  endfacet
  facet normal 5.814483e-02 -9.983082e-01 0.000000e+00
    outer loop
      vertex   6.910571e+01 -5.592824e+01 1.693408e+01
      vertex   7.029945e+01 -5.585871e+01 2.593408e+01
      vertex   6.910571e+01 -5.592824e+01 2.593408e+01
    endloop
  endfacet
  facet normal 2.868032e-01 -9.579895e-01 0.000000e+00
    outer loop
      vertex   6.910571e+01 -5.592824e+01 1.693408e+01
      vertex   6.910571e+01 -5.592824e+01 2.593408e+01
      vertex   6.796019e+01 -5.627119e+01 1.693408e+01
    endloop
  endfacet
  facet normal 2.868032e-01 -9.579895e-01 0.000000e+00
    outer loop
      vertex   6.796019e+01 -5.627119e+01 1.693408e+01
      vertex   6.910571e+01 -5.592824e+01 2.593408e+01
      vertex   6.796019e+01 -5.627119e+01 2.593408e+01
    endloop
  endfacet
  facet normal 5.000000e-01 -8.660254e-01 0.000000e+00
    outer loop
      vertex   6.796019e+01 -5.627119e+01 1.693408e+01
      vertex   6.796019e+01 -5.627119e+01 2.593408e+01
      vertex   6.692463e+01 -5.686907e+01 1.693408e+01
    endloop
  endfacet
  facet normal 5.000000e-01 -8.660254e-01 0.000000e+00
    outer loop
      vertex   6.692463e+01 -5.686907e+01 1.693408e+01
      vertex   6.796019e+01 -5.627119e+01 2.593408e+01
      vertex   6.692463e+01 -5.686907e+01 2.593408e+01
    endloop
  endfacet
  facet normal 6.862416e-01 -7.273736e-01 0.000000e+00
    outer loop
      vertex   6.692463e+01 -5.686907e+01 1.693408e+01
      vertex   6.692463e+01 -5.686907e+01 2.593408e+01
      vertex   6.605487e+01 -5.768964e+01 1.693408e+01
    endloop
  endfacet
  facet normal 6.862416e-01 -7.273736e-01 0.000000e+00
    outer loop
      vertex   6.605487e+01 -5.768964e+01 1.693408e+01
      vertex   6.692463e+01 -5.686907e+01 2.593408e+01
      vertex   6.605487e+01 -5.768964e+01 2.593408e+01
    endloop
  endfacet
  facet normal 8.354878e-01 -5.495090e-01 0.000000e+00
    outer loop
      vertex   6.605487e+01 -5.768964e+01 1.693408e+01
      vertex   6.605487e+01 -5.768964e+01 2.593408e+01
      vertex   6.539779e+01 -5.868868e+01 1.693408e+01
    endloop
  endfacet
  facet normal 8.354878e-01 -5.495090e-01 0.000000e+00
    outer loop
      vertex   6.539779e+01 -5.868868e+01 1.693408e+01
      vertex   6.605487e+01 -5.768964e+01 2.593408e+01
      vertex   6.539779e+01 -5.868868e+01 2.593408e+01
    endloop
  endfacet
  facet normal 9.396926e-01 -3.420201e-01 0.000000e+00
    outer loop
      vertex   6.539779e+01 -5.868868e+01 1.693408e+01
      vertex   6.539779e+01 -5.868868e+01 2.593408e+01
      vertex   6.498882e+01 -5.981233e+01 1.693408e+01
    endloop
  endfacet
  facet normal 9.396926e-01 -3.420201e-01 0.000000e+00
    outer loop
      vertex   6.498882e+01 -5.981233e+01 1.693408e+01
      vertex   6.539779e+01 -5.868868e+01 2.593408e+01
      vertex   6.498882e+01 -5.981233e+01 2.593408e+01
    endloop
  endfacet
  facet normal 0.000000e+00 1.000000e+00 -0.000000e+00
    outer loop
      vertex   2.300000e+02 -5.000000e+01 1.693408e+01
      vertex   9.121118e-01 -5.000000e+01 1.693408e+01
      vertex   2.300000e+02 -5.000000e+01 2.593408e+01
    endloop
  endfacet
  facet normal 0.000000e+00 1.000000e+00 0.000000e+00
    outer loop
      vertex   2.300000e+02 -5.000000e+01 2.593408e+01
      vertex   9.121118e-01 -5.000000e+01 1.693408e+01
      vertex   9.121118e-01 -5.000000e+01 2.593408e+01
    endloop
  endfacet
  facet normal 1.000000e+00 0.000000e+00 0.000000e+00
    outer loop
      vertex   2.300000e+02 -7.184262e+01 1.693408e+01
      vertex   2.300000e+02 -5.000000e+01 1.693408e+01
      vertex   2.300000e+02 -7.184262e+01 2.593408e+01
    endloop
  endfacet
  facet normal 1.000000e+00 -0.000000e+00 0.000000e+00
    outer loop
      vertex   2.300000e+02 -7.184262e+01 2.593408e+01
      vertex   2.300000e+02 -5.000000e+01 1.693408e+01
      vertex   2.300000e+02 -5.000000e+01 2.593408e+01
    endloop
  endfacet
  facet normal 0.000000e+00 -1.000000e+00 0.000000e+00
    outer loop
      vertex   9.121118e-01 -7.184262e+01 1.693408e+01
      vertex   2.300000e+02 -7.184262e+01 1.693408e+01
      vertex   9.121118e-01 -7.184262e+01 2.593408e+01
    endloop
  endfacet
  facet normal 0.000000e+00 -1.000000e+00 0.000000e+00
    outer loop
      vertex   9.121118e-01 -7.184262e+01 2.593408e+01
      vertex   2.300000e+02 -7.184262e+01 1.693408e+01
      vertex   2.300000e+02 -7.184262e+01 2.593408e+01
    endloop
  endfacet
  facet normal -1.000000e+00 0.000000e+00 0.000000e+00
    outer loop
      vertex   9.121118e-01 -5.000000e+01 1.693408e+01
      vertex   9.121118e-01 -7.184262e+01 1.693408e+01
      vertex   9.121118e-01 -5.000000e+01 2.593408e+01
    endloop
  endfacet
  facet normal -1.000000e+00 -0.000000e+00 0.000000e+00
    outer loop
      vertex   9.121118e-01 -5.000000e+01 2.593408e+01
      vertex   9.121118e-01 -7.184262e+01 1.693408e+01
      vertex   9.121118e-01 -7.184262e+01 2.593408e+01
    endloop
  endfacet
  facet normal 0.000000e+00 0.000000e+00 1.000000e+00
    outer loop
      vertex   2.498882e+01 -5.981233e+01 2.593408e+01
      vertex   9.121118e-01 -5.000000e+01 2.593408e+01
      vertex   2.485000e+01 -6.100000e+01 2.593408e+01
    endloop
  endfacet
  facet normal 0.000000e+00 0.000000e+00 1.000000e+00
    outer loop
      vertex   2.485000e+01 -6.100000e+01 2.593408e+01
      vertex   9.121118e-01 -5.000000e+01 2.593408e+01
      vertex   9.121118e-01 -7.184262e+01 2.593408e+01
    endloop
  endfacet
  facet normal 0.000000e+00 0.000000e+00 1.000000e+00
    outer loop
      vertex   2.485000e+01 -6.100000e+01 2.593408e+01
      vertex   9.121118e-01 -7.184262e+01 2.593408e+01
      vertex   2.498882e+01 -6.218767e+01 2.593408e+01
    endloop
  endfacet
  facet normal 0.000000e+00 0.000000e+00 1.000000e+00
    outer loop
      vertex   2.498882e+01 -6.218767e+01 2.593408e+01
      vertex   9.121118e-01 -7.184262e+01 2.593408e+01
      vertex   2.539779e+01 -6.331132e+01 2.593408e+01
    endloop
  endfacet
  facet normal 0.000000e+00 0.000000e+00 1.000000e+00
    outer loop
      vertex   2.539779e+01 -6.331132e+01 2.593408e+01
      vertex   9.121118e-01 -7.184262e+01 2.593408e+01
      vertex   2.605487e+01 -6.431036e+01 2.593408e+01
    endloop
  endfacet
  facet normal 0.000000e+00 0.000000e+00 1.000000e+00
    outer loop
      vertex   2.605487e+01 -6.431036e+01 2.593408e+01
      vertex   9.121118e-01 -7.184262e+01 2.593408e+01
      vertex   2.692463e+01 -6.513093e+01 2.593408e+01
    endloop
  endfacet
  facet normal 0.000000e+00 0.000000e+00 1.000000e+00
    outer loop
      vertex   2.692463e+01 -6.513093e+01 2.593408e+01
      vertex   9.121118e-01 -7.184262e+01 2.593408e+01
      vertex   2.796019e+01 -6.572881e+01 2.593408e+01
    endloop
  endfacet
  facet normal 0.000000e+00 0.000000e+00 1.000000e+00
    outer loop
      vertex   2.796019e+01 -6.572881e+01 2.593408e+01
      vertex   9.121118e-01 -7.184262e+01 2.593408e+01
      vertex   2.910571e+01 -6.607176e+01 2.593408e+01
    endloop
  endfacet
  facet normal 0.000000e+00 0.000000e+00 1.000000e+00
    outer loop
      vertex   2.910571e+01 -6.607176e+01 2.593408e+01
      vertex   9.121118e-01 -7.184262e+01 2.593408e+01
      vertex   3.029945e+01 -6.614129e+01 2.593408e+01
    endloop
  endfacet
  facet normal -0.000000e+00 0.000000e+00 1.000000e+00
    outer loop
      vertex   3.029945e+01 -6.614129e+01 2.593408e+01
      vertex   9.121118e-01 -7.184262e+01 2.593408e+01
      vertex   7.029945e+01 -6.614129e+01 2.593408e+01
    endloop
  endfacet
  facet normal 0.000000e+00 0.000000e+00 1.000000e+00
    outer loop
      vertex   3.029945e+01 -6.614129e+01 2.593408e+01
      vertex   7.029945e+01 -6.614129e+01 2.593408e+01
      vertex   6.910571e+01 -6.607176e+01 2.593408e+01
    endloop
  endfacet
  facet normal 0.000000e+00 -0.000000e+00 1.000000e+00
    outer loop
      vertex   2.498882e+01 -5.981233e+01 2.593408e+01
      vertex   2.539779e+01 -5.868868e+01 2.593408e+01
      vertex   9.121118e-01 -5.000000e+01 2.593408e+01
    endloop
  endfacet
  facet normal 0.000000e+00 0.000000e+00 1.000000e+00
    outer loop
      vertex   9.121118e-01 -5.000000e+01 2.593408e+01
      vertex   2.539779e+01 -5.868868e+01 2.593408e+01
      vertex   2.605487e+01 -5.768964e+01 2.593408e+01
    endloop
  endfacet
  facet normal 0.000000e+00 0.000000e+00 1.000000e+00
    outer loop
      vertex   9.121118e-01 -5.000000e+01 2.593408e+01
      vertex   2.605487e+01 -5.768964e+01 2.593408e+01
      vertex   2.692463e+01 -5.686907e+01 2.593408e+01
    endloop
  endfacet
  facet normal 0.000000e+00 -0.000000e+00 1.000000e+00
    outer loop
      vertex   2.692463e+01 -5.686907e+01 2.593408e+01
      vertex   2.796019e+01 -5.627119e+01 2.593408e+01
      vertex   9.121118e-01 -5.000000e+01 2.593408e+01
    endloop
  endfacet
  facet normal 0.000000e+00 0.000000e+00 1.000000e+00
    outer loop
      vertex   9.121118e-01 -5.000000e+01 2.593408e+01
      vertex   2.796019e+01 -5.627119e+01 2.593408e+01
      vertex   2.910571e+01 -5.592824e+01 2.593408e+01
    endloop
  endfacet
  facet normal 0.000000e+00 0.000000e+00 1.000000e+00
    outer loop
      vertex   9.121118e-01 -5.000000e+01 2.593408e+01
      vertex   2.910571e+01 -5.592824e+01 2.593408e+01
      vertex   3.029945e+01 -5.585871e+01 2.593408e+01
    endloop
  endfacet
  facet normal 0.000000e+00 -0.000000e+00 1.000000e+00
    outer loop
      vertex   3.147704e+01 -5.606635e+01 2.593408e+01
      vertex   6.910571e+01 -5.592824e+01 2.593408e+01
      vertex   3.029945e+01 -5.585871e+01 2.593408e+01
    endloop
  endfacet
  facet normal -0.000000e+00 0.000000e+00 1.000000e+00
    outer loop
      vertex   3.029945e+01 -5.585871e+01 2.593408e+01
      vertex   6.910571e+01 -5.592824e+01 2.593408e+01
      vertex   7.029945e+01 -5.585871e+01 2.593408e+01
    endloop
  endfacet
  facet normal 0.000000e+00 -0.000000e+00 1.000000e+00
    outer loop
      vertex   3.029945e+01 -5.585871e+01 2.593408e+01
      vertex   7.029945e+01 -5.585871e+01 2.593408e+01
      vertex   9.121118e-01 -5.000000e+01 2.593408e+01
    endloop
  endfacet
  facet normal -0.000000e+00 0.000000e+00 1.000000e+00
    outer loop
      vertex   9.121118e-01 -5.000000e+01 2.593408e+01
      vertex   7.029945e+01 -5.585871e+01 2.593408e+01
      vertex   2.300000e+02 -5.000000e+01 2.593408e+01
    endloop
  endfacet
  facet normal 0.000000e+00 0.000000e+00 1.000000e+00
    outer loop
      vertex   2.300000e+02 -5.000000e+01 2.593408e+01
      vertex   7.029945e+01 -5.585871e+01 2.593408e+01
      vertex   7.147704e+01 -5.606635e+01 2.593408e+01
    endloop
  endfacet
  facet normal 0.000000e+00 0.000000e+00 1.000000e+00
    outer loop
      vertex   2.300000e+02 -5.000000e+01 2.593408e+01
      vertex   7.147704e+01 -5.606635e+01 2.593408e+01
      vertex   7.257500e+01 -5.653997e+01 2.593408e+01
    endloop
  endfacet
  facet normal 0.000000e+00 0.000000e+00 1.000000e+00
    outer loop
      vertex   6.910571e+01 -5.592824e+01 2.593408e+01
      vertex   3.147704e+01 -5.606635e+01 2.593408e+01
      vertex   6.796019e+01 -5.627119e+01 2.593408e+01
    endloop
  endfacet
  facet normal 0.000000e+00 0.000000e+00 1.000000e+00
    outer loop
      vertex   6.796019e+01 -5.627119e+01 2.593408e+01
      vertex   3.147704e+01 -5.606635e+01 2.593408e+01
      vertex   3.257500e+01 -5.653997e+01 2.593408e+01
    endloop
  endfacet
  facet normal 0.000000e+00 0.000000e+00 1.000000e+00
    outer loop
      vertex   6.796019e+01 -5.627119e+01 2.593408e+01
      vertex   3.257500e+01 -5.653997e+01 2.593408e+01
      vertex   6.692463e+01 -5.686907e+01 2.593408e+01
    endloop
  endfacet
  facet normal 0.000000e+00 0.000000e+00 1.000000e+00
    outer loop
      vertex   6.692463e+01 -5.686907e+01 2.593408e+01
      vertex   3.257500e+01 -5.653997e+01 2.593408e+01
      vertex   3.353414e+01 -5.725403e+01 2.593408e+01
    endloop
  endfacet
  facet normal 0.000000e+00 0.000000e+00 1.000000e+00
    outer loop
      vertex   6.692463e+01 -5.686907e+01 2.593408e+01
      vertex   3.353414e+01 -5.725403e+01 2.593408e+01
      vertex   6.605487e+01 -5.768964e+01 2.593408e+01
    endloop
  endfacet
  facet normal 0.000000e+00 0.000000e+00 1.000000e+00
    outer loop
      vertex   6.605487e+01 -5.768964e+01 2.593408e+01
      vertex   3.353414e+01 -5.725403e+01 2.593408e+01
      vertex   3.430276e+01 -5.817003e+01 2.593408e+01
    endloop
  endfacet
  facet normal 0.000000e+00 0.000000e+00 1.000000e+00
    outer loop
      vertex   6.605487e+01 -5.768964e+01 2.593408e+01
      vertex   3.430276e+01 -5.817003e+01 2.593408e+01
      vertex   6.539779e+01 -5.868868e+01 2.593408e+01
    endloop
  endfacet
  facet normal 0.000000e+00 0.000000e+00 1.000000e+00
    outer loop
      vertex   6.539779e+01 -5.868868e+01 2.593408e+01
      vertex   3.430276e+01 -5.817003e+01 2.593408e+01
      vertex   3.483942e+01 -5.923860e+01 2.593408e+01
    endloop
  endfacet
  facet normal 0.000000e+00 0.000000e+00 1.000000e+00
    outer loop
      vertex   6.539779e+01 -5.868868e+01 2.593408e+01
      vertex   3.483942e+01 -5.923860e+01 2.593408e+01
      vertex   6.498882e+01 -5.981233e+01 2.593408e+01
    endloop
  endfacet
  facet normal 0.000000e+00 0.000000e+00 1.000000e+00
    outer loop
      vertex   6.498882e+01 -5.981233e+01 2.593408e+01
      vertex   3.483942e+01 -5.923860e+01 2.593408e+01
      vertex   3.511518e+01 -6.040212e+01 2.593408e+01
    endloop
  endfacet
  facet normal 0.000000e+00 0.000000e+00 1.000000e+00
    outer loop
      vertex   6.498882e+01 -5.981233e+01 2.593408e+01
      vertex   3.511518e+01 -6.040212e+01 2.593408e+01
      vertex   6.485000e+01 -6.100000e+01 2.593408e+01
    endloop
  endfacet
  facet normal 0.000000e+00 0.000000e+00 1.000000e+00
    outer loop
      vertex   6.485000e+01 -6.100000e+01 2.593408e+01
      vertex   3.511518e+01 -6.040212e+01 2.593408e+01
      vertex   3.511518e+01 -6.159788e+01 2.593408e+01
    endloop
  endfacet
  facet normal 0.000000e+00 0.000000e+00 1.000000e+00
    outer loop
      vertex   6.485000e+01 -6.100000e+01 2.593408e+01
      vertex   3.511518e+01 -6.159788e+01 2.593408e+01
      vertex   6.498882e+01 -6.218767e+01 2.593408e+01
    endloop
  endfacet
  facet normal 0.000000e+00 0.000000e+00 1.000000e+00
    outer loop
      vertex   6.498882e+01 -6.218767e+01 2.593408e+01
      vertex   3.511518e+01 -6.159788e+01 2.593408e+01
      vertex   3.483942e+01 -6.276140e+01 2.593408e+01
    endloop
  endfacet
  facet normal 0.000000e+00 0.000000e+00 1.000000e+00
    outer loop
      vertex   6.498882e+01 -6.218767e+01 2.593408e+01
      vertex   3.483942e+01 -6.276140e+01 2.593408e+01
      vertex   6.539779e+01 -6.331132e+01 2.593408e+01
    endloop
  endfacet
  facet normal 0.000000e+00 0.000000e+00 1.000000e+00
    outer loop
      vertex   6.539779e+01 -6.331132e+01 2.593408e+01
      vertex   3.483942e+01 -6.276140e+01 2.593408e+01
      vertex   3.430276e+01 -6.382997e+01 2.593408e+01
    endloop
  endfacet
  facet normal 0.000000e+00 0.000000e+00 1.000000e+00
    outer loop
      vertex   6.539779e+01 -6.331132e+01 2.593408e+01
      vertex   3.430276e+01 -6.382997e+01 2.593408e+01
      vertex   6.605487e+01 -6.431036e+01 2.593408e+01
    endloop
  endfacet
  facet normal 0.000000e+00 0.000000e+00 1.000000e+00
    outer loop
      vertex   6.605487e+01 -6.431036e+01 2.593408e+01
      vertex   3.430276e+01 -6.382997e+01 2.593408e+01
      vertex   3.353414e+01 -6.474597e+01 2.593408e+01
    endloop
  endfacet
  facet normal 0.000000e+00 0.000000e+00 1.000000e+00
    outer loop
      vertex   6.605487e+01 -6.431036e+01 2.593408e+01
      vertex   3.353414e+01 -6.474597e+01 2.593408e+01
      vertex   6.692463e+01 -6.513093e+01 2.593408e+01
    endloop
  endfacet
  facet normal 0.000000e+00 0.000000e+00 1.000000e+00
    outer loop
      vertex   6.692463e+01 -6.513093e+01 2.593408e+01
      vertex   3.353414e+01 -6.474597e+01 2.593408e+01
      vertex   3.257500e+01 -6.546003e+01 2.593408e+01
    endloop
  endfacet
  facet normal 0.000000e+00 0.000000e+00 1.000000e+00
    outer loop
      vertex   6.692463e+01 -6.513093e+01 2.593408e+01
      vertex   3.257500e+01 -6.546003e+01 2.593408e+01
      vertex   6.796019e+01 -6.572881e+01 2.593408e+01
    endloop
  endfacet
  facet normal 0.000000e+00 0.000000e+00 1.000000e+00
    outer loop
      vertex   6.796019e+01 -6.572881e+01 2.593408e+01
      vertex   3.257500e+01 -6.546003e+01 2.593408e+01
      vertex   3.147704e+01 -6.593365e+01 2.593408e+01
    endloop
  endfacet
  facet normal 0.000000e+00 0.000000e+00 1.000000e+00
    outer loop
      vertex   6.796019e+01 -6.572881e+01 2.593408e+01
      vertex   3.147704e+01 -6.593365e+01 2.593408e+01
      vertex   6.910571e+01 -6.607176e+01 2.593408e+01
    endloop
  endfacet
  facet normal 0.000000e+00 0.000000e+00 1.000000e+00
    outer loop
      vertex   6.910571e+01 -6.607176e+01 2.593408e+01
      vertex   3.147704e+01 -6.593365e+01 2.593408e+01
      vertex   3.029945e+01 -6.614129e+01 2.593408e+01
    endloop
  endfacet
  facet normal -0.000000e+00 0.000000e+00 1.000000e+00
    outer loop
      vertex   7.257500e+01 -5.653997e+01 2.593408e+01
      vertex   7.353414e+01 -5.725403e+01 2.593408e+01
      vertex   2.300000e+02 -5.000000e+01 2.593408e+01
    endloop
  endfacet
  facet normal 0.000000e+00 0.000000e+00 1.000000e+00
    outer loop
      vertex   2.300000e+02 -5.000000e+01 2.593408e+01
      vertex   7.353414e+01 -5.725403e+01 2.593408e+01
      vertex   7.430276e+01 -5.817003e+01 2.593408e+01
    endloop
  endfacet
  facet normal 0.000000e+00 0.000000e+00 1.000000e+00
    outer loop
      vertex   2.300000e+02 -5.000000e+01 2.593408e+01
      vertex   7.430276e+01 -5.817003e+01 2.593408e+01
      vertex   7.483942e+01 -5.923860e+01 2.593408e+01
    endloop
  endfacet
  facet normal -0.000000e+00 0.000000e+00 1.000000e+00
    outer loop
      vertex   7.483942e+01 -5.923860e+01 2.593408e+01
      vertex   7.511518e+01 -6.040212e+01 2.593408e+01
      vertex   2.300000e+02 -5.000000e+01 2.593408e+01
    endloop
  endfacet
  facet normal 0.000000e+00 0.000000e+00 1.000000e+00
    outer loop
      vertex   2.300000e+02 -5.000000e+01 2.593408e+01
      vertex   7.511518e+01 -6.040212e+01 2.593408e+01
      vertex   2.300000e+02 -7.184262e+01 2.593408e+01
    endloop
  endfacet
  facet normal 0.000000e+00 0.000000e+00 1.000000e+00
    outer loop
      vertex   2.300000e+02 -7.184262e+01 2.593408e+01
      vertex   7.511518e+01 -6.040212e+01 2.593408e+01
      vertex   7.511518e+01 -6.159788e+01 2.593408e+01
    endloop
  endfacet
  facet normal 0.000000e+00 0.000000e+00 1.000000e+00
    outer loop
      vertex   2.300000e+02 -7.184262e+01 2.593408e+01
      vertex   7.511518e+01 -6.159788e+01 2.593408e+01
      vertex   7.483942e+01 -6.276140e+01 2.593408e+01
    endloop
  endfacet
  facet normal 0.000000e+00 0.000000e+00 1.000000e+00
    outer loop
      vertex   7.483942e+01 -6.276140e+01 2.593408e+01
      vertex   7.430276e+01 -6.382997e+01 2.593408e+01
      vertex   2.300000e+02 -7.184262e+01 2.593408e+01
    endloop
  endfacet
  facet normal 0.000000e+00 0.000000e+00 1.000000e+00
    outer loop
      vertex   2.300000e+02 -7.184262e+01 2.593408e+01
      vertex   7.430276e+01 -6.382997e+01 2.593408e+01
      vertex   7.353414e+01 -6.474597e+01 2.593408e+01
    endloop
  endfacet
  facet normal 0.000000e+00 0.000000e+00 1.000000e+00
    outer loop
      vertex   2.300000e+02 -7.184262e+01 2.593408e+01
      vertex   7.353414e+01 -6.474597e+01 2.593408e+01
      vertex   7.257500e+01 -6.546003e+01 2.593408e+01
    endloop
  endfacet
  facet normal 0.000000e+00 0.000000e+00 1.000000e+00
    outer loop
      vertex   7.257500e+01 -6.546003e+01 2.593408e+01
      vertex   7.147704e+01 -6.593365e+01 2.593408e+01
      vertex   2.300000e+02 -7.184262e+01 2.593408e+01
    endloop
  endfacet
  facet normal 0.000000e+00 0.000000e+00 1.000000e+00
    outer loop
      vertex   2.300000e+02 -7.184262e+01 2.593408e+01
      vertex   7.147704e+01 -6.593365e+01 2.593408e+01
      vertex   7.029945e+01 -6.614129e+01 2.593408e+01
    endloop
  endfacet
  facet normal 0.000000e+00 0.000000e+00 1.000000e+00
    outer loop
      vertex   2.300000e+02 -7.184262e+01 2.593408e+01
      vertex   7.029945e+01 -6.614129e+01 2.593408e+01
      vertex   9.121118e-01 -7.184262e+01 2.593408e+01
    endloop
  endfacet
  facet normal -0.000000e+00 0.000000e+00 -1.000000e+00
    outer loop
      vertex   2.498882e+01 -6.218767e+01 1.693408e+01
      vertex   9.121118e-01 -7.184262e+01 1.693408e+01
      vertex   2.485000e+01 -6.100000e+01 1.693408e+01
    endloop
  endfacet
  facet normal -0.000000e+00 0.000000e+00 -1.000000e+00
    outer loop
      vertex   2.485000e+01 -6.100000e+01 1.693408e+01
      vertex   9.121118e-01 -7.184262e+01 1.693408e+01
      vertex   9.121118e-01 -5.000000e+01 1.693408e+01
    endloop
  endfacet
  facet normal 0.000000e+00 0.000000e+00 -1.000000e+00
    outer loop
      vertex   2.485000e+01 -6.100000e+01 1.693408e+01
      vertex   9.121118e-01 -5.000000e+01 1.693408e+01
      vertex   2.498882e+01 -5.981233e+01 1.693408e+01
    endloop
  endfacet
  facet normal 0.000000e+00 0.000000e+00 -1.000000e+00
    outer loop
      vertex   2.498882e+01 -5.981233e+01 1.693408e+01
      vertex   9.121118e-01 -5.000000e+01 1.693408e+01
      vertex   2.539779e+01 -5.868868e+01 1.693408e+01
    endloop
  endfacet
  facet normal 0.000000e+00 0.000000e+00 -1.000000e+00
    outer loop
      vertex   2.539779e+01 -5.868868e+01 1.693408e+01
      vertex   9.121118e-01 -5.000000e+01 1.693408e+01
      vertex   2.605487e+01 -5.768964e+01 1.693408e+01
    endloop
  endfacet
  facet normal 0.000000e+00 0.000000e+00 -1.000000e+00
    outer loop
      vertex   2.605487e+01 -5.768964e+01 1.693408e+01
      vertex   9.121118e-01 -5.000000e+01 1.693408e+01
      vertex   2.692463e+01 -5.686907e+01 1.693408e+01
    endloop
  endfacet
  facet normal 0.000000e+00 0.000000e+00 -1.000000e+00
    outer loop
      vertex   2.692463e+01 -5.686907e+01 1.693408e+01
      vertex   9.121118e-01 -5.000000e+01 1.693408e+01
      vertex   2.796019e+01 -5.627119e+01 1.693408e+01
    endloop
  endfacet
  facet normal 0.000000e+00 0.000000e+00 -1.000000e+00
    outer loop
      vertex   2.796019e+01 -5.627119e+01 1.693408e+01
      vertex   9.121118e-01 -5.000000e+01 1.693408e+01
      vertex   2.910571e+01 -5.592824e+01 1.693408e+01
    endloop
  endfacet
  facet normal 0.000000e+00 0.000000e+00 -1.000000e+00
    outer loop
      vertex   2.910571e+01 -5.592824e+01 1.693408e+01
      vertex   9.121118e-01 -5.000000e+01 1.693408e+01
      vertex   3.029945e+01 -5.585871e+01 1.693408e+01
    endloop
  endfacet
  facet normal 0.000000e+00 0.000000e+00 -1.000000e+00
    outer loop
      vertex   3.029945e+01 -5.585871e+01 1.693408e+01
      vertex   9.121118e-01 -5.000000e+01 1.693408e+01
      vertex   7.029945e+01 -5.585871e+01 1.693408e+01
    endloop
  endfacet
  facet normal 0.000000e+00 0.000000e+00 -1.000000e+00
    outer loop
      vertex   3.029945e+01 -5.585871e+01 1.693408e+01
      vertex   7.029945e+01 -5.585871e+01 1.693408e+01
      vertex   6.910571e+01 -5.592824e+01 1.693408e+01
    endloop
  endfacet
  facet normal 0.000000e+00 -0.000000e+00 -1.000000e+00
    outer loop
      vertex   2.498882e+01 -6.218767e+01 1.693408e+01
      vertex   2.539779e+01 -6.331132e+01 1.693408e+01
      vertex   9.121118e-01 -7.184262e+01 1.693408e+01
    endloop
  endfacet
  facet normal 0.000000e+00 0.000000e+00 -1.000000e+00
    outer loop
      vertex   9.121118e-01 -7.184262e+01 1.693408e+01
      vertex   2.539779e+01 -6.331132e+01 1.693408e+01
      vertex   2.605487e+01 -6.431036e+01 1.693408e+01
    endloop
  endfacet
  facet normal 0.000000e+00 0.000000e+00 -1.000000e+00
    outer loop
      vertex   9.121118e-01 -7.184262e+01 1.693408e+01
      vertex   2.605487e+01 -6.431036e+01 1.693408e+01
      vertex   2.692463e+01 -6.513093e+01 1.693408e+01
    endloop
  endfacet
  facet normal 0.000000e+00 -0.000000e+00 -1.000000e+00
    outer loop
      vertex   2.692463e+01 -6.513093e+01 1.693408e+01
      vertex   2.796019e+01 -6.572881e+01 1.693408e+01
      vertex   9.121118e-01 -7.184262e+01 1.693408e+01
    endloop
  endfacet
  facet normal 0.000000e+00 0.000000e+00 -1.000000e+00
    outer loop
      vertex   9.121118e-01 -7.184262e+01 1.693408e+01
      vertex   2.796019e+01 -6.572881e+01 1.693408e+01
      vertex   2.910571e+01 -6.607176e+01 1.693408e+01
    endloop
  endfacet
  facet normal 0.000000e+00 0.000000e+00 -1.000000e+00
    outer loop
      vertex   9.121118e-01 -7.184262e+01 1.693408e+01
      vertex   2.910571e+01 -6.607176e+01 1.693408e+01
      vertex   3.029945e+01 -6.614129e+01 1.693408e+01
    endloop
  endfacet
  facet normal 0.000000e+00 -0.000000e+00 -1.000000e+00
    outer loop
      vertex   3.147704e+01 -6.593365e+01 1.693408e+01
      vertex   6.910571e+01 -6.607176e+01 1.693408e+01
      vertex   3.029945e+01 -6.614129e+01 1.693408e+01
    endloop
  endfacet
  facet normal 0.000000e+00 0.000000e+00 -1.000000e+00
    outer loop
      vertex   3.029945e+01 -6.614129e+01 1.693408e+01
      vertex   6.910571e+01 -6.607176e+01 1.693408e+01
      vertex   7.029945e+01 -6.614129e+01 1.693408e+01
    endloop
  endfacet
  facet normal 0.000000e+00 -0.000000e+00 -1.000000e+00
    outer loop
      vertex   3.029945e+01 -6.614129e+01 1.693408e+01
      vertex   7.029945e+01 -6.614129e+01 1.693408e+01
      vertex   9.121118e-01 -7.184262e+01 1.693408e+01
    endloop
  endfacet
  facet normal 0.000000e+00 0.000000e+00 -1.000000e+00
    outer loop
      vertex   9.121118e-01 -7.184262e+01 1.693408e+01
      vertex   7.029945e+01 -6.614129e+01 1.693408e+01
      vertex   2.300000e+02 -7.184262e+01 1.693408e+01
    endloop
  endfacet
  facet normal 0.000000e+00 0.000000e+00 -1.000000e+00
    outer loop
      vertex   2.300000e+02 -7.184262e+01 1.693408e+01
      vertex   7.029945e+01 -6.614129e+01 1.693408e+01
      vertex   7.147704e+01 -6.593365e+01 1.693408e+01
    endloop
  endfacet
  facet normal 0.000000e+00 0.000000e+00 -1.000000e+00
    outer loop
      vertex   2.300000e+02 -7.184262e+01 1.693408e+01
      vertex   7.147704e+01 -6.593365e+01 1.693408e+01
      vertex   7.257500e+01 -6.546003e+01 1.693408e+01
    endloop
  endfacet
  facet normal 0.000000e+00 0.000000e+00 -1.000000e+00
    outer loop
      vertex   6.910571e+01 -6.607176e+01 1.693408e+01
      vertex   3.147704e+01 -6.593365e+01 1.693408e+01
      vertex   6.796019e+01 -6.572881e+01 1.693408e+01
    endloop
  endfacet
  facet normal -0.000000e+00 0.000000e+00 -1.000000e+00
    outer loop
      vertex   6.796019e+01 -6.572881e+01 1.693408e+01
      vertex   3.147704e+01 -6.593365e+01 1.693408e+01
      vertex   3.257500e+01 -6.546003e+01 1.693408e+01
    endloop
  endfacet
  facet normal 0.000000e+00 0.000000e+00 -1.000000e+00
    outer loop
      vertex   6.796019e+01 -6.572881e+01 1.693408e+01
      vertex   3.257500e+01 -6.546003e+01 1.693408e+01
      vertex   6.692463e+01 -6.513093e+01 1.693408e+01
    endloop
  endfacet
  facet normal -0.000000e+00 0.000000e+00 -1.000000e+00
    outer loop
      vertex   6.692463e+01 -6.513093e+01 1.693408e+01
      vertex   3.257500e+01 -6.546003e+01 1.693408e+01
      vertex   3.353414e+01 -6.474597e+01 1.693408e+01
    endloop
  endfacet
  facet normal 0.000000e+00 0.000000e+00 -1.000000e+00
    outer loop
      vertex   6.692463e+01 -6.513093e+01 1.693408e+01
      vertex   3.353414e+01 -6.474597e+01 1.693408e+01
      vertex   6.605487e+01 -6.431036e+01 1.693408e+01
    endloop
  endfacet
  facet normal -0.000000e+00 0.000000e+00 -1.000000e+00
    outer loop
      vertex   6.605487e+01 -6.431036e+01 1.693408e+01
      vertex   3.353414e+01 -6.474597e+01 1.693408e+01
      vertex   3.430276e+01 -6.382997e+01 1.693408e+01
    endloop
  endfacet
  facet normal 0.000000e+00 0.000000e+00 -1.000000e+00
    outer loop
      vertex   6.605487e+01 -6.431036e+01 1.693408e+01
      vertex   3.430276e+01 -6.382997e+01 1.693408e+01
      vertex   6.539779e+01 -6.331132e+01 1.693408e+01
    endloop
  endfacet
  facet normal -0.000000e+00 0.000000e+00 -1.000000e+00
    outer loop
      vertex   6.539779e+01 -6.331132e+01 1.693408e+01
      vertex   3.430276e+01 -6.382997e+01 1.693408e+01
      vertex   3.483942e+01 -6.276140e+01 1.693408e+01
    endloop
  endfacet
  facet normal 0.000000e+00 0.000000e+00 -1.000000e+00
    outer loop
      vertex   6.539779e+01 -6.331132e+01 1.693408e+01
      vertex   3.483942e+01 -6.276140e+01 1.693408e+01
      vertex   6.498882e+01 -6.218767e+01 1.693408e+01
    endloop
  endfacet
  facet normal -0.000000e+00 0.000000e+00 -1.000000e+00
    outer loop
      vertex   6.498882e+01 -6.218767e+01 1.693408e+01
      vertex   3.483942e+01 -6.276140e+01 1.693408e+01
      vertex   3.511518e+01 -6.159788e+01 1.693408e+01
    endloop
  endfacet
  facet normal 0.000000e+00 0.000000e+00 -1.000000e+00
    outer loop
      vertex   6.498882e+01 -6.218767e+01 1.693408e+01
      vertex   3.511518e+01 -6.159788e+01 1.693408e+01
      vertex   6.485000e+01 -6.100000e+01 1.693408e+01
    endloop
  endfacet
  facet normal -0.000000e+00 0.000000e+00 -1.000000e+00
    outer loop
      vertex   6.485000e+01 -6.100000e+01 1.693408e+01
      vertex   3.511518e+01 -6.159788e+01 1.693408e+01
      vertex   3.511518e+01 -6.040212e+01 1.693408e+01
    endloop
  endfacet
  facet normal 0.000000e+00 0.000000e+00 -1.000000e+00
    outer loop
      vertex   6.485000e+01 -6.100000e+01 1.693408e+01
      vertex   3.511518e+01 -6.040212e+01 1.693408e+01
      vertex   6.498882e+01 -5.981233e+01 1.693408e+01
    endloop
  endfacet
  facet normal -0.000000e+00 0.000000e+00 -1.000000e+00
    outer loop
      vertex   6.498882e+01 -5.981233e+01 1.693408e+01
      vertex   3.511518e+01 -6.040212e+01 1.693408e+01
      vertex   3.483942e+01 -5.923860e+01 1.693408e+01
    endloop
  endfacet
  facet normal 0.000000e+00 0.000000e+00 -1.000000e+00
    outer loop
      vertex   6.498882e+01 -5.981233e+01 1.693408e+01
      vertex   3.483942e+01 -5.923860e+01 1.693408e+01
      vertex   6.539779e+01 -5.868868e+01 1.693408e+01
    endloop
  endfacet
  facet normal -0.000000e+00 0.000000e+00 -1.000000e+00
    outer loop
      vertex   6.539779e+01 -5.868868e+01 1.693408e+01
      vertex   3.483942e+01 -5.923860e+01 1.693408e+01
      vertex   3.430276e+01 -5.817003e+01 1.693408e+01
    endloop
  endfacet
  facet normal 0.000000e+00 0.000000e+00 -1.000000e+00
    outer loop
      vertex   6.539779e+01 -5.868868e+01 1.693408e+01
      vertex   3.430276e+01 -5.817003e+01 1.693408e+01
      vertex   6.605487e+01 -5.768964e+01 1.693408e+01
    endloop
  endfacet
  facet normal -0.000000e+00 0.000000e+00 -1.000000e+00
    outer loop
      vertex   6.605487e+01 -5.768964e+01 1.693408e+01
      vertex   3.430276e+01 -5.817003e+01 1.693408e+01
      vertex   3.353414e+01 -5.725403e+01 1.693408e+01
    endloop
  endfacet
  facet normal 0.000000e+00 0.000000e+00 -1.000000e+00
    outer loop
      vertex   6.605487e+01 -5.768964e+01 1.693408e+01
      vertex   3.353414e+01 -5.725403e+01 1.693408e+01
      vertex   6.692463e+01 -5.686907e+01 1.693408e+01
    endloop
  endfacet
  facet normal -0.000000e+00 0.000000e+00 -1.000000e+00
    outer loop
      vertex   6.692463e+01 -5.686907e+01 1.693408e+01
      vertex   3.353414e+01 -5.725403e+01 1.693408e+01
      vertex   3.257500e+01 -5.653997e+01 1.693408e+01
    endloop
  endfacet
  facet normal 0.000000e+00 0.000000e+00 -1.000000e+00
    outer loop
      vertex   6.692463e+01 -5.686907e+01 1.693408e+01
      vertex   3.257500e+01 -5.653997e+01 1.693408e+01
      vertex   6.796019e+01 -5.627119e+01 1.693408e+01
    endloop
  endfacet
  facet normal -0.000000e+00 0.000000e+00 -1.000000e+00
    outer loop
      vertex   6.796019e+01 -5.627119e+01 1.693408e+01
      vertex   3.257500e+01 -5.653997e+01 1.693408e+01
      vertex   3.147704e+01 -5.606635e+01 1.693408e+01
    endloop
  endfacet
  facet normal 0.000000e+00 0.000000e+00 -1.000000e+00
    outer loop
      vertex   6.796019e+01 -5.627119e+01 1.693408e+01
      vertex   3.147704e+01 -5.606635e+01 1.693408e+01
      vertex   6.910571e+01 -5.592824e+01 1.693408e+01
    endloop
  endfacet
  facet normal -0.000000e+00 0.000000e+00 -1.000000e+00
    outer loop
      vertex   6.910571e+01 -5.592824e+01 1.693408e+01
      vertex   3.147704e+01 -5.606635e+01 1.693408e+01
      vertex   3.029945e+01 -5.585871e+01 1.693408e+01
    endloop
  endfacet
  facet normal 0.000000e+00 0.000000e+00 -1.000000e+00
    outer loop
      vertex   7.257500e+01 -6.546003e+01 1.693408e+01
      vertex   7.353414e+01 -6.474597e+01 1.693408e+01
      vertex   2.300000e+02 -7.184262e+01 1.693408e+01
    endloop
  endfacet
  facet normal 0.000000e+00 0.000000e+00 -1.000000e+00
    outer loop
      vertex   2.300000e+02 -7.184262e+01 1.693408e+01
      vertex   7.353414e+01 -6.474597e+01 1.693408e+01
      vertex   7.430276e+01 -6.382997e+01 1.693408e+01
    endloop
  endfacet
  facet normal 0.000000e+00 0.000000e+00 -1.000000e+00
    outer loop
      vertex   2.300000e+02 -7.184262e+01 1.693408e+01
      vertex   7.430276e+01 -6.382997e+01 1.693408e+01
      vertex   7.483942e+01 -6.276140e+01 1.693408e+01
    endloop
  endfacet
  facet normal 0.000000e+00 0.000000e+00 -1.000000e+00
    outer loop
      vertex   7.483942e+01 -6.276140e+01 1.693408e+01
      vertex   7.511518e+01 -6.159788e+01 1.693408e+01
      vertex   2.300000e+02 -7.184262e+01 1.693408e+01
    endloop
  endfacet
  facet normal 0.000000e+00 0.000000e+00 -1.000000e+00
    outer loop
      vertex   2.300000e+02 -7.184262e+01 1.693408e+01
      vertex   7.511518e+01 -6.159788e+01 1.693408e+01
      vertex   7.511518e+01 -6.040212e+01 1.693408e+01
    endloop
  endfacet
  facet normal 0.000000e+00 0.000000e+00 -1.000000e+00
    outer loop
      vertex   2.300000e+02 -7.184262e+01 1.693408e+01
      vertex   7.511518e+01 -6.040212e+01 1.693408e+01
      vertex   2.300000e+02 -5.000000e+01 1.693408e+01
    endloop
  endfacet
  facet normal 0.000000e+00 0.000000e+00 -1.000000e+00
    outer loop
      vertex   2.300000e+02 -5.000000e+01 1.693408e+01
      vertex   7.511518e+01 -6.040212e+01 1.693408e+01
      vertex   7.483942e+01 -5.923860e+01 1.693408e+01
    endloop
  endfacet
  facet normal 0.000000e+00 0.000000e+00 -1.000000e+00
    outer loop
      vertex   2.300000e+02 -5.000000e+01 1.693408e+01
      vertex   7.483942e+01 -5.923860e+01 1.693408e+01
      vertex   7.430276e+01 -5.817003e+01 1.693408e+01
    endloop
  endfacet
  facet normal 0.000000e+00 0.000000e+00 -1.000000e+00
    outer loop
      vertex   7.430276e+01 -5.817003e+01 1.693408e+01
      vertex   7.353414e+01 -5.725403e+01 1.693408e+01
      vertex   2.300000e+02 -5.000000e+01 1.693408e+01
    endloop
  endfacet
  facet normal 0.000000e+00 0.000000e+00 -1.000000e+00
    outer loop
      vertex   2.300000e+02 -5.000000e+01 1.693408e+01
      vertex   7.353414e+01 -5.725403e+01 1.693408e+01
      vertex   7.257500e+01 -5.653997e+01 1.693408e+01
    endloop
  endfacet
  facet normal 0.000000e+00 0.000000e+00 -1.000000e+00
    outer loop
      vertex   2.300000e+02 -5.000000e+01 1.693408e+01
      vertex   7.257500e+01 -5.653997e+01 1.693408e+01
      vertex   7.147704e+01 -5.606635e+01 1.693408e+01
    endloop
  endfacet
  facet normal 0.000000e+00 0.000000e+00 -1.000000e+00
    outer loop
      vertex   7.147704e+01 -5.606635e+01 1.693408e+01
      vertex   7.029945e+01 -5.585871e+01 1.693408e+01
      vertex   2.300000e+02 -5.000000e+01 1.693408e+01
    endloop
  endfacet
  facet normal -0.000000e+00 0.000000e+00 -1.000000e+00
    outer loop
      vertex   2.300000e+02 -5.000000e+01 1.693408e+01
      vertex   7.029945e+01 -5.585871e+01 1.693408e+01
      vertex   9.121118e-01 -5.000000e+01 1.693408e+01
    endloop
  endfacet
endsolid
