ISO-10303-21;
HEADER;
/* Generated by software containing ST-Developer
 * from STEP Tools, Inc. (www.steptools.com) 
 */

FILE_DESCRIPTION(
/* description */ (''),
/* implementation_level */ '2;1');

FILE_NAME(
/* name */ 'uhel 120 stupnu.step',
/* time_stamp */ '2026-04-16T16:11:21+02:00',
/* author */ (''),
/* organization */ (''),
/* preprocessor_version */ 'ST-DEVELOPER v20.1',
/* originating_system */ 'Autodesk Translation Framework v14.24.0.0',
/* authorisation */ '');

FILE_SCHEMA (('AUTOMOTIVE_DESIGN { 1 0 10303 214 3 1 1 }'));
ENDSEC;

DATA;
#10=MECHANICAL_DESIGN_GEOMETRIC_PRESENTATION_REPRESENTATION('',(#13,#14,
#15),#790);
#11=SHAPE_REPRESENTATION_RELATIONSHIP('SRR','None',#797,#12);
#12=ADVANCED_BREP_SHAPE_REPRESENTATION('',(#16,#17,#18),#789);
#13=STYLED_ITEM('',(#806),#16);
#14=STYLED_ITEM('',(#806),#17);
#15=STYLED_ITEM('',(#806),#18);
#16=MANIFOLD_SOLID_BREP('Body1',#464);
#17=MANIFOLD_SOLID_BREP('Body2',#465);
#18=MANIFOLD_SOLID_BREP('Body3',#466);
#19=FACE_BOUND('',#90,.T.);
#20=FACE_BOUND('',#91,.T.);
#21=FACE_BOUND('',#92,.T.);
#22=FACE_BOUND('',#93,.T.);
#23=FACE_BOUND('',#104,.T.);
#24=FACE_BOUND('',#105,.T.);
#25=FACE_BOUND('',#107,.T.);
#26=FACE_BOUND('',#108,.T.);
#27=FACE_BOUND('',#112,.T.);
#28=FACE_BOUND('',#113,.T.);
#29=FACE_BOUND('',#119,.T.);
#30=FACE_BOUND('',#120,.T.);
#31=PLANE('',#483);
#32=PLANE('',#487);
#33=PLANE('',#491);
#34=PLANE('',#492);
#35=PLANE('',#493);
#36=PLANE('',#497);
#37=PLANE('',#499);
#38=PLANE('',#502);
#39=PLANE('',#509);
#40=PLANE('',#510);
#41=PLANE('',#511);
#42=PLANE('',#512);
#43=PLANE('',#513);
#44=PLANE('',#514);
#45=PLANE('',#521);
#46=PLANE('',#522);
#47=PLANE('',#523);
#48=PLANE('',#524);
#49=PLANE('',#525);
#50=PLANE('',#526);
#51=FACE_OUTER_BOUND('',#80,.T.);
#52=FACE_OUTER_BOUND('',#81,.T.);
#53=FACE_OUTER_BOUND('',#82,.T.);
#54=FACE_OUTER_BOUND('',#83,.T.);
#55=FACE_OUTER_BOUND('',#84,.T.);
#56=FACE_OUTER_BOUND('',#85,.T.);
#57=FACE_OUTER_BOUND('',#86,.T.);
#58=FACE_OUTER_BOUND('',#87,.T.);
#59=FACE_OUTER_BOUND('',#88,.T.);
#60=FACE_OUTER_BOUND('',#89,.T.);
#61=FACE_OUTER_BOUND('',#94,.T.);
#62=FACE_OUTER_BOUND('',#95,.T.);
#63=FACE_OUTER_BOUND('',#96,.T.);
#64=FACE_OUTER_BOUND('',#97,.T.);
#65=FACE_OUTER_BOUND('',#98,.T.);
#66=FACE_OUTER_BOUND('',#99,.T.);
#67=FACE_OUTER_BOUND('',#100,.T.);
#68=FACE_OUTER_BOUND('',#101,.T.);
#69=FACE_OUTER_BOUND('',#102,.T.);
#70=FACE_OUTER_BOUND('',#103,.T.);
#71=FACE_OUTER_BOUND('',#106,.T.);
#72=FACE_OUTER_BOUND('',#109,.T.);
#73=FACE_OUTER_BOUND('',#110,.T.);
#74=FACE_OUTER_BOUND('',#111,.T.);
#75=FACE_OUTER_BOUND('',#114,.T.);
#76=FACE_OUTER_BOUND('',#115,.T.);
#77=FACE_OUTER_BOUND('',#116,.T.);
#78=FACE_OUTER_BOUND('',#117,.T.);
#79=FACE_OUTER_BOUND('',#118,.T.);
#80=EDGE_LOOP('',(#312,#313,#314,#315));
#81=EDGE_LOOP('',(#316));
#82=EDGE_LOOP('',(#317,#318,#319,#320));
#83=EDGE_LOOP('',(#321));
#84=EDGE_LOOP('',(#322,#323,#324,#325));
#85=EDGE_LOOP('',(#326));
#86=EDGE_LOOP('',(#327,#328,#329,#330));
#87=EDGE_LOOP('',(#331,#332,#333,#334));
#88=EDGE_LOOP('',(#335,#336,#337,#338));
#89=EDGE_LOOP('',(#339,#340,#341));
#90=EDGE_LOOP('',(#342));
#91=EDGE_LOOP('',(#343));
#92=EDGE_LOOP('',(#344));
#93=EDGE_LOOP('',(#345));
#94=EDGE_LOOP('',(#346,#347,#348));
#95=EDGE_LOOP('',(#349,#350,#351,#352));
#96=EDGE_LOOP('',(#353));
#97=EDGE_LOOP('',(#354,#355,#356,#357));
#98=EDGE_LOOP('',(#358,#359,#360,#361));
#99=EDGE_LOOP('',(#362,#363,#364,#365));
#100=EDGE_LOOP('',(#366,#367,#368,#369));
#101=EDGE_LOOP('',(#370,#371,#372,#373));
#102=EDGE_LOOP('',(#374,#375,#376,#377));
#103=EDGE_LOOP('',(#378,#379,#380,#381));
#104=EDGE_LOOP('',(#382));
#105=EDGE_LOOP('',(#383));
#106=EDGE_LOOP('',(#384,#385,#386,#387));
#107=EDGE_LOOP('',(#388));
#108=EDGE_LOOP('',(#389));
#109=EDGE_LOOP('',(#390,#391,#392,#393));
#110=EDGE_LOOP('',(#394,#395,#396,#397));
#111=EDGE_LOOP('',(#398,#399,#400,#401));
#112=EDGE_LOOP('',(#402));
#113=EDGE_LOOP('',(#403));
#114=EDGE_LOOP('',(#404,#405,#406,#407));
#115=EDGE_LOOP('',(#408,#409,#410,#411));
#116=EDGE_LOOP('',(#412,#413,#414,#415));
#117=EDGE_LOOP('',(#416,#417,#418,#419));
#118=EDGE_LOOP('',(#420,#421,#422,#423));
#119=EDGE_LOOP('',(#424));
#120=EDGE_LOOP('',(#425));
#121=LINE('',#667,#160);
#122=LINE('',#674,#161);
#123=LINE('',#681,#162);
#124=LINE('',#687,#163);
#125=LINE('',#689,#164);
#126=LINE('',#691,#165);
#127=LINE('',#692,#166);
#128=LINE('',#695,#167);
#129=LINE('',#697,#168);
#130=LINE('',#698,#169);
#131=LINE('',#709,#170);
#132=LINE('',#715,#171);
#133=LINE('',#721,#172);
#134=LINE('',#726,#173);
#135=LINE('',#728,#174);
#136=LINE('',#730,#175);
#137=LINE('',#731,#176);
#138=LINE('',#734,#177);
#139=LINE('',#736,#178);
#140=LINE('',#737,#179);
#141=LINE('',#740,#180);
#142=LINE('',#742,#181);
#143=LINE('',#743,#182);
#144=LINE('',#745,#183);
#145=LINE('',#746,#184);
#146=LINE('',#753,#185);
#147=LINE('',#759,#186);
#148=LINE('',#764,#187);
#149=LINE('',#766,#188);
#150=LINE('',#768,#189);
#151=LINE('',#769,#190);
#152=LINE('',#772,#191);
#153=LINE('',#774,#192);
#154=LINE('',#775,#193);
#155=LINE('',#778,#194);
#156=LINE('',#779,#195);
#157=LINE('',#782,#196);
#158=LINE('',#783,#197);
#159=LINE('',#785,#198);
#160=VECTOR('',#533,5.);
#161=VECTOR('',#542,5.);
#162=VECTOR('',#551,5.);
#163=VECTOR('',#558,37.956055911);
#164=VECTOR('',#559,37.956055911);
#165=VECTOR('',#560,10.);
#166=VECTOR('',#561,37.956055911);
#167=VECTOR('',#564,37.956055911);
#168=VECTOR('',#565,10.);
#169=VECTOR('',#566,37.956055911);
#170=VECTOR('',#583,5.);
#171=VECTOR('',#590,5.);
#172=VECTOR('',#597,5.);
#173=VECTOR('',#602,10.);
#174=VECTOR('',#603,10.);
#175=VECTOR('',#604,10.);
#176=VECTOR('',#605,10.);
#177=VECTOR('',#608,10.);
#178=VECTOR('',#609,10.);
#179=VECTOR('',#610,10.);
#180=VECTOR('',#613,10.);
#181=VECTOR('',#614,10.);
#182=VECTOR('',#615,10.);
#183=VECTOR('',#618,10.);
#184=VECTOR('',#619,10.);
#185=VECTOR('',#628,5.);
#186=VECTOR('',#635,5.);
#187=VECTOR('',#640,10.);
#188=VECTOR('',#641,10.);
#189=VECTOR('',#642,10.);
#190=VECTOR('',#643,10.);
#191=VECTOR('',#646,10.);
#192=VECTOR('',#647,10.);
#193=VECTOR('',#648,10.);
#194=VECTOR('',#651,10.);
#195=VECTOR('',#652,10.);
#196=VECTOR('',#655,10.);
#197=VECTOR('',#656,10.);
#198=VECTOR('',#659,10.);
#199=CIRCLE('',#481,5.);
#200=CIRCLE('',#482,5.);
#201=CIRCLE('',#485,5.);
#202=CIRCLE('',#486,5.);
#203=CIRCLE('',#489,5.);
#204=CIRCLE('',#490,5.);
#205=CIRCLE('',#495,151.824223644);
#206=CIRCLE('',#496,151.824223644);
#207=CIRCLE('',#498,5.);
#208=CIRCLE('',#501,5.);
#209=CIRCLE('',#504,5.15);
#210=CIRCLE('',#505,5.15);
#211=CIRCLE('',#507,5.15);
#212=CIRCLE('',#508,5.15);
#213=CIRCLE('',#516,5.15);
#214=CIRCLE('',#517,5.15);
#215=CIRCLE('',#519,5.15);
#216=CIRCLE('',#520,5.15);
#217=VERTEX_POINT('',#664);
#218=VERTEX_POINT('',#666);
#219=VERTEX_POINT('',#671);
#220=VERTEX_POINT('',#673);
#221=VERTEX_POINT('',#678);
#222=VERTEX_POINT('',#680);
#223=VERTEX_POINT('',#685);
#224=VERTEX_POINT('',#686);
#225=VERTEX_POINT('',#688);
#226=VERTEX_POINT('',#690);
#227=VERTEX_POINT('',#694);
#228=VERTEX_POINT('',#696);
#229=VERTEX_POINT('',#703);
#230=VERTEX_POINT('',#707);
#231=VERTEX_POINT('',#712);
#232=VERTEX_POINT('',#714);
#233=VERTEX_POINT('',#718);
#234=VERTEX_POINT('',#720);
#235=VERTEX_POINT('',#724);
#236=VERTEX_POINT('',#725);
#237=VERTEX_POINT('',#727);
#238=VERTEX_POINT('',#729);
#239=VERTEX_POINT('',#733);
#240=VERTEX_POINT('',#735);
#241=VERTEX_POINT('',#739);
#242=VERTEX_POINT('',#741);
#243=VERTEX_POINT('',#750);
#244=VERTEX_POINT('',#752);
#245=VERTEX_POINT('',#756);
#246=VERTEX_POINT('',#758);
#247=VERTEX_POINT('',#762);
#248=VERTEX_POINT('',#763);
#249=VERTEX_POINT('',#765);
#250=VERTEX_POINT('',#767);
#251=VERTEX_POINT('',#771);
#252=VERTEX_POINT('',#773);
#253=VERTEX_POINT('',#777);
#254=VERTEX_POINT('',#781);
#255=EDGE_CURVE('',#217,#217,#199,.T.);
#256=EDGE_CURVE('',#217,#218,#121,.T.);
#257=EDGE_CURVE('',#218,#218,#200,.T.);
#258=EDGE_CURVE('',#219,#219,#201,.T.);
#259=EDGE_CURVE('',#219,#220,#122,.T.);
#260=EDGE_CURVE('',#220,#220,#202,.T.);
#261=EDGE_CURVE('',#221,#221,#203,.T.);
#262=EDGE_CURVE('',#221,#222,#123,.T.);
#263=EDGE_CURVE('',#222,#222,#204,.T.);
#264=EDGE_CURVE('',#223,#224,#124,.T.);
#265=EDGE_CURVE('',#224,#225,#125,.T.);
#266=EDGE_CURVE('',#226,#225,#126,.T.);
#267=EDGE_CURVE('',#223,#226,#127,.T.);
#268=EDGE_CURVE('',#227,#223,#128,.T.);
#269=EDGE_CURVE('',#228,#226,#129,.T.);
#270=EDGE_CURVE('',#227,#228,#130,.T.);
#271=EDGE_CURVE('',#224,#227,#205,.T.);
#272=EDGE_CURVE('',#225,#228,#206,.T.);
#273=EDGE_CURVE('',#229,#229,#207,.T.);
#274=EDGE_CURVE('',#230,#230,#208,.T.);
#275=EDGE_CURVE('',#230,#229,#131,.T.);
#276=EDGE_CURVE('',#231,#231,#209,.F.);
#277=EDGE_CURVE('',#231,#232,#132,.T.);
#278=EDGE_CURVE('',#232,#232,#210,.T.);
#279=EDGE_CURVE('',#233,#233,#211,.F.);
#280=EDGE_CURVE('',#233,#234,#133,.T.);
#281=EDGE_CURVE('',#234,#234,#212,.T.);
#282=EDGE_CURVE('',#235,#236,#134,.T.);
#283=EDGE_CURVE('',#236,#237,#135,.T.);
#284=EDGE_CURVE('',#238,#237,#136,.T.);
#285=EDGE_CURVE('',#235,#238,#137,.T.);
#286=EDGE_CURVE('',#239,#235,#138,.T.);
#287=EDGE_CURVE('',#240,#238,#139,.T.);
#288=EDGE_CURVE('',#239,#240,#140,.T.);
#289=EDGE_CURVE('',#241,#239,#141,.T.);
#290=EDGE_CURVE('',#242,#240,#142,.T.);
#291=EDGE_CURVE('',#241,#242,#143,.T.);
#292=EDGE_CURVE('',#236,#241,#144,.T.);
#293=EDGE_CURVE('',#237,#242,#145,.T.);
#294=EDGE_CURVE('',#243,#243,#213,.F.);
#295=EDGE_CURVE('',#243,#244,#146,.T.);
#296=EDGE_CURVE('',#244,#244,#214,.T.);
#297=EDGE_CURVE('',#245,#245,#215,.F.);
#298=EDGE_CURVE('',#245,#246,#147,.T.);
#299=EDGE_CURVE('',#246,#246,#216,.T.);
#300=EDGE_CURVE('',#247,#248,#148,.T.);
#301=EDGE_CURVE('',#249,#247,#149,.T.);
#302=EDGE_CURVE('',#250,#249,#150,.T.);
#303=EDGE_CURVE('',#248,#250,#151,.T.);
#304=EDGE_CURVE('',#248,#251,#152,.T.);
#305=EDGE_CURVE('',#252,#251,#153,.T.);
#306=EDGE_CURVE('',#247,#252,#154,.T.);
#307=EDGE_CURVE('',#253,#252,#155,.T.);
#308=EDGE_CURVE('',#249,#253,#156,.T.);
#309=EDGE_CURVE('',#254,#253,#157,.T.);
#310=EDGE_CURVE('',#250,#254,#158,.T.);
#311=EDGE_CURVE('',#251,#254,#159,.T.);
#312=ORIENTED_EDGE('',*,*,#255,.F.);
#313=ORIENTED_EDGE('',*,*,#256,.T.);
#314=ORIENTED_EDGE('',*,*,#257,.F.);
#315=ORIENTED_EDGE('',*,*,#256,.F.);
#316=ORIENTED_EDGE('',*,*,#255,.T.);
#317=ORIENTED_EDGE('',*,*,#258,.F.);
#318=ORIENTED_EDGE('',*,*,#259,.T.);
#319=ORIENTED_EDGE('',*,*,#260,.F.);
#320=ORIENTED_EDGE('',*,*,#259,.F.);
#321=ORIENTED_EDGE('',*,*,#258,.T.);
#322=ORIENTED_EDGE('',*,*,#261,.F.);
#323=ORIENTED_EDGE('',*,*,#262,.T.);
#324=ORIENTED_EDGE('',*,*,#263,.F.);
#325=ORIENTED_EDGE('',*,*,#262,.F.);
#326=ORIENTED_EDGE('',*,*,#261,.T.);
#327=ORIENTED_EDGE('',*,*,#264,.T.);
#328=ORIENTED_EDGE('',*,*,#265,.T.);
#329=ORIENTED_EDGE('',*,*,#266,.F.);
#330=ORIENTED_EDGE('',*,*,#267,.F.);
#331=ORIENTED_EDGE('',*,*,#268,.T.);
#332=ORIENTED_EDGE('',*,*,#267,.T.);
#333=ORIENTED_EDGE('',*,*,#269,.F.);
#334=ORIENTED_EDGE('',*,*,#270,.F.);
#335=ORIENTED_EDGE('',*,*,#271,.T.);
#336=ORIENTED_EDGE('',*,*,#270,.T.);
#337=ORIENTED_EDGE('',*,*,#272,.F.);
#338=ORIENTED_EDGE('',*,*,#265,.F.);
#339=ORIENTED_EDGE('',*,*,#272,.T.);
#340=ORIENTED_EDGE('',*,*,#269,.T.);
#341=ORIENTED_EDGE('',*,*,#266,.T.);
#342=ORIENTED_EDGE('',*,*,#257,.T.);
#343=ORIENTED_EDGE('',*,*,#260,.T.);
#344=ORIENTED_EDGE('',*,*,#273,.T.);
#345=ORIENTED_EDGE('',*,*,#263,.T.);
#346=ORIENTED_EDGE('',*,*,#271,.F.);
#347=ORIENTED_EDGE('',*,*,#264,.F.);
#348=ORIENTED_EDGE('',*,*,#268,.F.);
#349=ORIENTED_EDGE('',*,*,#274,.F.);
#350=ORIENTED_EDGE('',*,*,#275,.T.);
#351=ORIENTED_EDGE('',*,*,#273,.F.);
#352=ORIENTED_EDGE('',*,*,#275,.F.);
#353=ORIENTED_EDGE('',*,*,#274,.T.);
#354=ORIENTED_EDGE('',*,*,#276,.F.);
#355=ORIENTED_EDGE('',*,*,#277,.T.);
#356=ORIENTED_EDGE('',*,*,#278,.F.);
#357=ORIENTED_EDGE('',*,*,#277,.F.);
#358=ORIENTED_EDGE('',*,*,#279,.F.);
#359=ORIENTED_EDGE('',*,*,#280,.T.);
#360=ORIENTED_EDGE('',*,*,#281,.F.);
#361=ORIENTED_EDGE('',*,*,#280,.F.);
#362=ORIENTED_EDGE('',*,*,#282,.T.);
#363=ORIENTED_EDGE('',*,*,#283,.T.);
#364=ORIENTED_EDGE('',*,*,#284,.F.);
#365=ORIENTED_EDGE('',*,*,#285,.F.);
#366=ORIENTED_EDGE('',*,*,#286,.T.);
#367=ORIENTED_EDGE('',*,*,#285,.T.);
#368=ORIENTED_EDGE('',*,*,#287,.F.);
#369=ORIENTED_EDGE('',*,*,#288,.F.);
#370=ORIENTED_EDGE('',*,*,#289,.T.);
#371=ORIENTED_EDGE('',*,*,#288,.T.);
#372=ORIENTED_EDGE('',*,*,#290,.F.);
#373=ORIENTED_EDGE('',*,*,#291,.F.);
#374=ORIENTED_EDGE('',*,*,#292,.T.);
#375=ORIENTED_EDGE('',*,*,#291,.T.);
#376=ORIENTED_EDGE('',*,*,#293,.F.);
#377=ORIENTED_EDGE('',*,*,#283,.F.);
#378=ORIENTED_EDGE('',*,*,#293,.T.);
#379=ORIENTED_EDGE('',*,*,#290,.T.);
#380=ORIENTED_EDGE('',*,*,#287,.T.);
#381=ORIENTED_EDGE('',*,*,#284,.T.);
#382=ORIENTED_EDGE('',*,*,#278,.T.);
#383=ORIENTED_EDGE('',*,*,#281,.T.);
#384=ORIENTED_EDGE('',*,*,#282,.F.);
#385=ORIENTED_EDGE('',*,*,#286,.F.);
#386=ORIENTED_EDGE('',*,*,#289,.F.);
#387=ORIENTED_EDGE('',*,*,#292,.F.);
#388=ORIENTED_EDGE('',*,*,#276,.T.);
#389=ORIENTED_EDGE('',*,*,#279,.T.);
#390=ORIENTED_EDGE('',*,*,#294,.F.);
#391=ORIENTED_EDGE('',*,*,#295,.T.);
#392=ORIENTED_EDGE('',*,*,#296,.F.);
#393=ORIENTED_EDGE('',*,*,#295,.F.);
#394=ORIENTED_EDGE('',*,*,#297,.F.);
#395=ORIENTED_EDGE('',*,*,#298,.T.);
#396=ORIENTED_EDGE('',*,*,#299,.F.);
#397=ORIENTED_EDGE('',*,*,#298,.F.);
#398=ORIENTED_EDGE('',*,*,#300,.F.);
#399=ORIENTED_EDGE('',*,*,#301,.F.);
#400=ORIENTED_EDGE('',*,*,#302,.F.);
#401=ORIENTED_EDGE('',*,*,#303,.F.);
#402=ORIENTED_EDGE('',*,*,#297,.T.);
#403=ORIENTED_EDGE('',*,*,#294,.T.);
#404=ORIENTED_EDGE('',*,*,#300,.T.);
#405=ORIENTED_EDGE('',*,*,#304,.T.);
#406=ORIENTED_EDGE('',*,*,#305,.F.);
#407=ORIENTED_EDGE('',*,*,#306,.F.);
#408=ORIENTED_EDGE('',*,*,#301,.T.);
#409=ORIENTED_EDGE('',*,*,#306,.T.);
#410=ORIENTED_EDGE('',*,*,#307,.F.);
#411=ORIENTED_EDGE('',*,*,#308,.F.);
#412=ORIENTED_EDGE('',*,*,#302,.T.);
#413=ORIENTED_EDGE('',*,*,#308,.T.);
#414=ORIENTED_EDGE('',*,*,#309,.F.);
#415=ORIENTED_EDGE('',*,*,#310,.F.);
#416=ORIENTED_EDGE('',*,*,#303,.T.);
#417=ORIENTED_EDGE('',*,*,#310,.T.);
#418=ORIENTED_EDGE('',*,*,#311,.F.);
#419=ORIENTED_EDGE('',*,*,#304,.F.);
#420=ORIENTED_EDGE('',*,*,#311,.T.);
#421=ORIENTED_EDGE('',*,*,#309,.T.);
#422=ORIENTED_EDGE('',*,*,#307,.T.);
#423=ORIENTED_EDGE('',*,*,#305,.T.);
#424=ORIENTED_EDGE('',*,*,#296,.T.);
#425=ORIENTED_EDGE('',*,*,#299,.T.);
#426=CYLINDRICAL_SURFACE('',#480,5.);
#427=CYLINDRICAL_SURFACE('',#484,5.);
#428=CYLINDRICAL_SURFACE('',#488,5.);
#429=CYLINDRICAL_SURFACE('',#494,151.824223644);
#430=CYLINDRICAL_SURFACE('',#500,5.);
#431=CYLINDRICAL_SURFACE('',#503,5.15);
#432=CYLINDRICAL_SURFACE('',#506,5.15);
#433=CYLINDRICAL_SURFACE('',#515,5.15);
#434=CYLINDRICAL_SURFACE('',#518,5.15);
#435=ADVANCED_FACE('',(#51),#426,.T.);
#436=ADVANCED_FACE('',(#52),#31,.T.);
#437=ADVANCED_FACE('',(#53),#427,.T.);
#438=ADVANCED_FACE('',(#54),#32,.T.);
#439=ADVANCED_FACE('',(#55),#428,.T.);
#440=ADVANCED_FACE('',(#56),#33,.T.);
#441=ADVANCED_FACE('',(#57),#34,.T.);
#442=ADVANCED_FACE('',(#58),#35,.T.);
#443=ADVANCED_FACE('',(#59),#429,.T.);
#444=ADVANCED_FACE('',(#60,#19,#20,#21,#22),#36,.T.);
#445=ADVANCED_FACE('',(#61),#37,.F.);
#446=ADVANCED_FACE('',(#62),#430,.T.);
#447=ADVANCED_FACE('',(#63),#38,.T.);
#448=ADVANCED_FACE('',(#64),#431,.F.);
#449=ADVANCED_FACE('',(#65),#432,.F.);
#450=ADVANCED_FACE('',(#66),#39,.T.);
#451=ADVANCED_FACE('',(#67),#40,.T.);
#452=ADVANCED_FACE('',(#68),#41,.T.);
#453=ADVANCED_FACE('',(#69),#42,.T.);
#454=ADVANCED_FACE('',(#70,#23,#24),#43,.T.);
#455=ADVANCED_FACE('',(#71,#25,#26),#44,.F.);
#456=ADVANCED_FACE('',(#72),#433,.F.);
#457=ADVANCED_FACE('',(#73),#434,.F.);
#458=ADVANCED_FACE('',(#74,#27,#28),#45,.F.);
#459=ADVANCED_FACE('',(#75),#46,.T.);
#460=ADVANCED_FACE('',(#76),#47,.T.);
#461=ADVANCED_FACE('',(#77),#48,.T.);
#462=ADVANCED_FACE('',(#78),#49,.T.);
#463=ADVANCED_FACE('',(#79,#29,#30),#50,.T.);
#464=CLOSED_SHELL('',(#435,#436,#437,#438,#439,#440,#441,#442,#443,#444,
#445,#446,#447));
#465=CLOSED_SHELL('',(#448,#449,#450,#451,#452,#453,#454,#455));
#466=CLOSED_SHELL('',(#456,#457,#458,#459,#460,#461,#462,#463));
#467=DERIVED_UNIT_ELEMENT(#469,1.);
#468=DERIVED_UNIT_ELEMENT(#792,-3.);
#469=(
MASS_UNIT()
NAMED_UNIT(*)
SI_UNIT(.KILO.,.GRAM.)
);
#470=DERIVED_UNIT((#467,#468));
#471=MEASURE_REPRESENTATION_ITEM('density measure',
POSITIVE_RATIO_MEASURE(7850.),#470);
#472=PROPERTY_DEFINITION_REPRESENTATION(#477,#474);
#473=PROPERTY_DEFINITION_REPRESENTATION(#478,#475);
#474=REPRESENTATION('material name',(#476),#789);
#475=REPRESENTATION('density',(#471),#789);
#476=DESCRIPTIVE_REPRESENTATION_ITEM('Steel','Steel');
#477=PROPERTY_DEFINITION('material property','material name',#799);
#478=PROPERTY_DEFINITION('material property','density of part',#799);
#479=AXIS2_PLACEMENT_3D('',#662,#527,#528);
#480=AXIS2_PLACEMENT_3D('',#663,#529,#530);
#481=AXIS2_PLACEMENT_3D('',#665,#531,#532);
#482=AXIS2_PLACEMENT_3D('',#668,#534,#535);
#483=AXIS2_PLACEMENT_3D('',#669,#536,#537);
#484=AXIS2_PLACEMENT_3D('',#670,#538,#539);
#485=AXIS2_PLACEMENT_3D('',#672,#540,#541);
#486=AXIS2_PLACEMENT_3D('',#675,#543,#544);
#487=AXIS2_PLACEMENT_3D('',#676,#545,#546);
#488=AXIS2_PLACEMENT_3D('',#677,#547,#548);
#489=AXIS2_PLACEMENT_3D('',#679,#549,#550);
#490=AXIS2_PLACEMENT_3D('',#682,#552,#553);
#491=AXIS2_PLACEMENT_3D('',#683,#554,#555);
#492=AXIS2_PLACEMENT_3D('',#684,#556,#557);
#493=AXIS2_PLACEMENT_3D('',#693,#562,#563);
#494=AXIS2_PLACEMENT_3D('',#699,#567,#568);
#495=AXIS2_PLACEMENT_3D('',#700,#569,#570);
#496=AXIS2_PLACEMENT_3D('',#701,#571,#572);
#497=AXIS2_PLACEMENT_3D('',#702,#573,#574);
#498=AXIS2_PLACEMENT_3D('',#704,#575,#576);
#499=AXIS2_PLACEMENT_3D('',#705,#577,#578);
#500=AXIS2_PLACEMENT_3D('',#706,#579,#580);
#501=AXIS2_PLACEMENT_3D('',#708,#581,#582);
#502=AXIS2_PLACEMENT_3D('',#710,#584,#585);
#503=AXIS2_PLACEMENT_3D('',#711,#586,#587);
#504=AXIS2_PLACEMENT_3D('',#713,#588,#589);
#505=AXIS2_PLACEMENT_3D('',#716,#591,#592);
#506=AXIS2_PLACEMENT_3D('',#717,#593,#594);
#507=AXIS2_PLACEMENT_3D('',#719,#595,#596);
#508=AXIS2_PLACEMENT_3D('',#722,#598,#599);
#509=AXIS2_PLACEMENT_3D('',#723,#600,#601);
#510=AXIS2_PLACEMENT_3D('',#732,#606,#607);
#511=AXIS2_PLACEMENT_3D('',#738,#611,#612);
#512=AXIS2_PLACEMENT_3D('',#744,#616,#617);
#513=AXIS2_PLACEMENT_3D('',#747,#620,#621);
#514=AXIS2_PLACEMENT_3D('',#748,#622,#623);
#515=AXIS2_PLACEMENT_3D('',#749,#624,#625);
#516=AXIS2_PLACEMENT_3D('',#751,#626,#627);
#517=AXIS2_PLACEMENT_3D('',#754,#629,#630);
#518=AXIS2_PLACEMENT_3D('',#755,#631,#632);
#519=AXIS2_PLACEMENT_3D('',#757,#633,#634);
#520=AXIS2_PLACEMENT_3D('',#760,#636,#637);
#521=AXIS2_PLACEMENT_3D('',#761,#638,#639);
#522=AXIS2_PLACEMENT_3D('',#770,#644,#645);
#523=AXIS2_PLACEMENT_3D('',#776,#649,#650);
#524=AXIS2_PLACEMENT_3D('',#780,#653,#654);
#525=AXIS2_PLACEMENT_3D('',#784,#657,#658);
#526=AXIS2_PLACEMENT_3D('',#786,#660,#661);
#527=DIRECTION('axis',(0.,0.,1.));
#528=DIRECTION('refdir',(1.,0.,0.));
#529=DIRECTION('center_axis',(0.,0.,1.));
#530=DIRECTION('ref_axis',(1.,0.,0.));
#531=DIRECTION('center_axis',(0.,0.,1.));
#532=DIRECTION('ref_axis',(1.,0.,0.));
#533=DIRECTION('',(0.,0.,-1.));
#534=DIRECTION('center_axis',(0.,0.,-1.));
#535=DIRECTION('ref_axis',(1.,0.,0.));
#536=DIRECTION('center_axis',(0.,0.,1.));
#537=DIRECTION('ref_axis',(1.,0.,0.));
#538=DIRECTION('center_axis',(0.,0.,1.));
#539=DIRECTION('ref_axis',(1.,0.,0.));
#540=DIRECTION('center_axis',(0.,0.,1.));
#541=DIRECTION('ref_axis',(1.,0.,0.));
#542=DIRECTION('',(0.,0.,-1.));
#543=DIRECTION('center_axis',(0.,0.,-1.));
#544=DIRECTION('ref_axis',(1.,0.,0.));
#545=DIRECTION('center_axis',(0.,0.,1.));
#546=DIRECTION('ref_axis',(1.,0.,0.));
#547=DIRECTION('center_axis',(0.,0.,1.));
#548=DIRECTION('ref_axis',(1.,0.,0.));
#549=DIRECTION('center_axis',(0.,0.,1.));
#550=DIRECTION('ref_axis',(1.,0.,0.));
#551=DIRECTION('',(0.,0.,-1.));
#552=DIRECTION('center_axis',(0.,0.,-1.));
#553=DIRECTION('ref_axis',(1.,0.,0.));
#554=DIRECTION('center_axis',(0.,0.,1.));
#555=DIRECTION('ref_axis',(1.,0.,0.));
#556=DIRECTION('center_axis',(0.,-1.,0.));
#557=DIRECTION('ref_axis',(1.,0.,0.));
#558=DIRECTION('',(1.,0.,0.));
#559=DIRECTION('',(0.,0.,1.));
#560=DIRECTION('',(1.,0.,0.));
#561=DIRECTION('',(0.,0.,1.));
#562=DIRECTION('center_axis',(-0.866025403784439,-0.5,0.));
#563=DIRECTION('ref_axis',(0.5,-0.866025403784438,0.));
#564=DIRECTION('',(0.5,-0.866025403784438,0.));
#565=DIRECTION('',(0.5,-0.866025403784438,0.));
#566=DIRECTION('',(0.,0.,1.));
#567=DIRECTION('center_axis',(0.,0.,1.));
#568=DIRECTION('ref_axis',(1.,0.,0.));
#569=DIRECTION('center_axis',(0.,0.,1.));
#570=DIRECTION('ref_axis',(1.,0.,0.));
#571=DIRECTION('center_axis',(0.,0.,1.));
#572=DIRECTION('ref_axis',(1.,0.,0.));
#573=DIRECTION('center_axis',(0.,0.,1.));
#574=DIRECTION('ref_axis',(1.,0.,0.));
#575=DIRECTION('center_axis',(0.,0.,-1.));
#576=DIRECTION('ref_axis',(1.,0.,0.));
#577=DIRECTION('center_axis',(0.,0.,1.));
#578=DIRECTION('ref_axis',(1.,0.,0.));
#579=DIRECTION('center_axis',(0.,0.,1.));
#580=DIRECTION('ref_axis',(1.,0.,0.));
#581=DIRECTION('center_axis',(0.,0.,1.));
#582=DIRECTION('ref_axis',(1.,0.,0.));
#583=DIRECTION('',(0.,0.,-1.));
#584=DIRECTION('center_axis',(0.,0.,1.));
#585=DIRECTION('ref_axis',(1.,0.,0.));
#586=DIRECTION('center_axis',(0.,0.,1.));
#587=DIRECTION('ref_axis',(1.,0.,0.));
#588=DIRECTION('center_axis',(0.,0.,-1.));
#589=DIRECTION('ref_axis',(1.,0.,0.));
#590=DIRECTION('',(0.,0.,1.));
#591=DIRECTION('center_axis',(0.,0.,-1.));
#592=DIRECTION('ref_axis',(1.,0.,0.));
#593=DIRECTION('center_axis',(0.,0.,1.));
#594=DIRECTION('ref_axis',(1.,0.,0.));
#595=DIRECTION('center_axis',(0.,0.,-1.));
#596=DIRECTION('ref_axis',(1.,0.,0.));
#597=DIRECTION('',(0.,0.,1.));
#598=DIRECTION('center_axis',(0.,0.,-1.));
#599=DIRECTION('ref_axis',(1.,0.,0.));
#600=DIRECTION('center_axis',(0.,1.,0.));
#601=DIRECTION('ref_axis',(-1.,0.,0.));
#602=DIRECTION('',(-1.,0.,0.));
#603=DIRECTION('',(0.,0.,1.));
#604=DIRECTION('',(-1.,0.,0.));
#605=DIRECTION('',(0.,0.,1.));
#606=DIRECTION('center_axis',(1.,0.,0.));
#607=DIRECTION('ref_axis',(0.,1.,0.));
#608=DIRECTION('',(0.,1.,0.));
#609=DIRECTION('',(0.,1.,0.));
#610=DIRECTION('',(0.,0.,1.));
#611=DIRECTION('center_axis',(0.,-1.,0.));
#612=DIRECTION('ref_axis',(1.,0.,0.));
#613=DIRECTION('',(1.,0.,0.));
#614=DIRECTION('',(1.,0.,0.));
#615=DIRECTION('',(0.,0.,1.));
#616=DIRECTION('center_axis',(-1.,0.,0.));
#617=DIRECTION('ref_axis',(0.,-1.,0.));
#618=DIRECTION('',(0.,-1.,0.));
#619=DIRECTION('',(0.,-1.,0.));
#620=DIRECTION('center_axis',(0.,0.,1.));
#621=DIRECTION('ref_axis',(1.,0.,0.));
#622=DIRECTION('center_axis',(0.,0.,1.));
#623=DIRECTION('ref_axis',(-1.,0.,0.));
#624=DIRECTION('center_axis',(0.,0.,1.));
#625=DIRECTION('ref_axis',(1.,0.,0.));
#626=DIRECTION('center_axis',(0.,0.,-1.));
#627=DIRECTION('ref_axis',(1.,0.,0.));
#628=DIRECTION('',(0.,0.,1.));
#629=DIRECTION('center_axis',(0.,0.,-1.));
#630=DIRECTION('ref_axis',(1.,0.,0.));
#631=DIRECTION('center_axis',(0.,0.,1.));
#632=DIRECTION('ref_axis',(1.,0.,0.));
#633=DIRECTION('center_axis',(0.,0.,-1.));
#634=DIRECTION('ref_axis',(1.,0.,0.));
#635=DIRECTION('',(0.,0.,1.));
#636=DIRECTION('center_axis',(0.,0.,-1.));
#637=DIRECTION('ref_axis',(1.,0.,0.));
#638=DIRECTION('center_axis',(0.,0.,1.));
#639=DIRECTION('ref_axis',(0.5,-0.866025403784439,0.));
#640=DIRECTION('',(0.5,-0.866025403784439,0.));
#641=DIRECTION('',(-0.866025403784439,-0.5,0.));
#642=DIRECTION('',(-0.5,0.866025403784439,0.));
#643=DIRECTION('',(0.866025403784439,0.5,0.));
#644=DIRECTION('center_axis',(-0.866025403784439,-0.5,0.));
#645=DIRECTION('ref_axis',(0.5,-0.866025403784439,0.));
#646=DIRECTION('',(0.,0.,1.));
#647=DIRECTION('',(0.5,-0.866025403784439,0.));
#648=DIRECTION('',(0.,0.,1.));
#649=DIRECTION('center_axis',(-0.5,0.866025403784439,0.));
#650=DIRECTION('ref_axis',(-0.866025403784439,-0.5,0.));
#651=DIRECTION('',(-0.866025403784439,-0.5,0.));
#652=DIRECTION('',(0.,0.,1.));
#653=DIRECTION('center_axis',(0.866025403784439,0.5,0.));
#654=DIRECTION('ref_axis',(-0.5,0.866025403784439,0.));
#655=DIRECTION('',(-0.5,0.866025403784439,0.));
#656=DIRECTION('',(0.,0.,1.));
#657=DIRECTION('center_axis',(0.5,-0.866025403784439,0.));
#658=DIRECTION('ref_axis',(0.866025403784439,0.5,0.));
#659=DIRECTION('',(0.866025403784439,0.5,0.));
#660=DIRECTION('center_axis',(0.,0.,1.));
#661=DIRECTION('ref_axis',(-0.5,0.866025403784439,0.));
#662=CARTESIAN_POINT('',(0.,0.,0.));
#663=CARTESIAN_POINT('Origin',(30.,-61.,20.4340838665));
#664=CARTESIAN_POINT('',(25.,-61.,25.9340838665));
#665=CARTESIAN_POINT('Origin',(30.,-61.,25.9340838665));
#666=CARTESIAN_POINT('',(25.,-61.,16.9340838665));
#667=CARTESIAN_POINT('',(25.,-61.,20.4340838665));
#668=CARTESIAN_POINT('Origin',(30.,-61.,16.9340838665));
#669=CARTESIAN_POINT('Origin',(30.,-61.,25.9340838665));
#670=CARTESIAN_POINT('Origin',(70.,-61.,20.4340838665));
#671=CARTESIAN_POINT('',(65.,-61.,25.9340838665));
#672=CARTESIAN_POINT('Origin',(70.,-61.,25.9340838665));
#673=CARTESIAN_POINT('',(65.,-61.,16.9340838665));
#674=CARTESIAN_POINT('',(65.,-61.,20.4340838665));
#675=CARTESIAN_POINT('Origin',(70.,-61.,16.9340838665));
#676=CARTESIAN_POINT('Origin',(70.,-61.,25.9340838665));
#677=CARTESIAN_POINT('Origin',(-68.,0.,20.4340838665));
#678=CARTESIAN_POINT('',(-73.,-6.12323399573677E-16,25.9340838665));
#679=CARTESIAN_POINT('Origin',(-68.,0.,25.9340838665));
#680=CARTESIAN_POINT('',(-73.,6.12323399573677E-16,16.9340838665));
#681=CARTESIAN_POINT('',(-73.,-6.12323399573677E-16,20.4340838665));
#682=CARTESIAN_POINT('Origin',(-68.,0.,16.9340838665));
#683=CARTESIAN_POINT('Origin',(0.,0.,25.9340838665));
#684=CARTESIAN_POINT('Origin',(-39.087888178,-71.8426184341765,0.));
#685=CARTESIAN_POINT('',(-39.087888178,-71.8426184341765,0.));
#686=CARTESIAN_POINT('',(112.736335466,-71.8426184341765,0.));
#687=CARTESIAN_POINT('',(-39.087888178,-71.8426184341765,0.));
#688=CARTESIAN_POINT('',(112.736335466,-71.8426184341765,16.9340838665));
#689=CARTESIAN_POINT('',(112.736335466,-71.8426184341765,0.));
#690=CARTESIAN_POINT('',(-39.087888178,-71.8426184341765,16.9340838665));
#691=CARTESIAN_POINT('',(-20.1098602225,-71.8426184341765,16.9340838665));
#692=CARTESIAN_POINT('',(-39.087888178,-71.8426184341765,0.));
#693=CARTESIAN_POINT('Origin',(-115.,59.6410161513775,0.));
#694=CARTESIAN_POINT('',(-115.,59.6410161513775,0.));
#695=CARTESIAN_POINT('',(-115.,59.6410161513775,0.));
#696=CARTESIAN_POINT('',(-115.,59.6410161513775,16.9340838665));
#697=CARTESIAN_POINT('',(-88.7348914233192,14.1485136302534,16.9340838665));
#698=CARTESIAN_POINT('',(-115.,59.6410161513775,0.));
#699=CARTESIAN_POINT('Origin',(-39.087888178,-71.8426184341765,0.));
#700=CARTESIAN_POINT('Origin',(-39.087888178,-71.8426184341765,0.));
#701=CARTESIAN_POINT('Origin',(-39.087888178,-71.8426184341765,16.9340838665));
#702=CARTESIAN_POINT('Origin',(-1.13183226699999,4.06949338782353,16.9340838665));
#703=CARTESIAN_POINT('',(-95.5,38.9711431702997,16.9340838665));
#704=CARTESIAN_POINT('Origin',(-90.5,38.9711431702997,16.9340838665));
#705=CARTESIAN_POINT('Origin',(-1.13183226699999,4.06949338782353,0.));
#706=CARTESIAN_POINT('Origin',(-90.5,38.9711431702997,20.4340838665));
#707=CARTESIAN_POINT('',(-95.5,38.9711431702997,25.9340838665));
#708=CARTESIAN_POINT('Origin',(-90.5,38.9711431702997,25.9340838665));
#709=CARTESIAN_POINT('',(-95.5,38.9711431702997,20.4340838665));
#710=CARTESIAN_POINT('Origin',(-22.5,38.9711431702997,25.9340838665));
#711=CARTESIAN_POINT('Origin',(30.,-61.,20.4340838665));
#712=CARTESIAN_POINT('',(24.85,-61.,16.9340838665));
#713=CARTESIAN_POINT('Origin',(30.,-61.,16.9340838665));
#714=CARTESIAN_POINT('',(24.85,-61.,25.9340838665));
#715=CARTESIAN_POINT('',(24.85,-61.,20.4340838665));
#716=CARTESIAN_POINT('Origin',(30.,-61.,25.9340838665));
#717=CARTESIAN_POINT('Origin',(70.,-61.,20.4340838665));
#718=CARTESIAN_POINT('',(64.85,-61.,16.9340838665));
#719=CARTESIAN_POINT('Origin',(70.,-61.,16.9340838665));
#720=CARTESIAN_POINT('',(64.85,-61.,25.9340838665));
#721=CARTESIAN_POINT('',(64.85,-61.,20.4340838665));
#722=CARTESIAN_POINT('Origin',(70.,-61.,25.9340838665));
#723=CARTESIAN_POINT('Origin',(230.,-50.,16.9340838665));
#724=CARTESIAN_POINT('',(230.,-50.,16.9340838665));
#725=CARTESIAN_POINT('',(0.91211182200003,-50.,16.9340838665));
#726=CARTESIAN_POINT('',(230.,-50.,16.9340838665));
#727=CARTESIAN_POINT('',(0.91211182200003,-50.,25.9340838665));
#728=CARTESIAN_POINT('',(0.91211182200003,-50.,16.9340838665));
#729=CARTESIAN_POINT('',(230.,-50.,25.9340838665));
#730=CARTESIAN_POINT('',(230.,-50.,25.9340838665));
#731=CARTESIAN_POINT('',(230.,-50.,16.9340838665));
#732=CARTESIAN_POINT('Origin',(230.,-71.8426184341765,16.9340838665));
#733=CARTESIAN_POINT('',(230.,-71.8426184341765,16.9340838665));
#734=CARTESIAN_POINT('',(230.,-71.8426184341765,16.9340838665));
#735=CARTESIAN_POINT('',(230.,-71.8426184341765,25.9340838665));
#736=CARTESIAN_POINT('',(230.,-71.8426184341765,25.9340838665));
#737=CARTESIAN_POINT('',(230.,-71.8426184341765,16.9340838665));
#738=CARTESIAN_POINT('Origin',(0.91211182200003,-71.8426184341765,16.9340838665));
#739=CARTESIAN_POINT('',(0.91211182200003,-71.8426184341765,16.9340838665));
#740=CARTESIAN_POINT('',(0.91211182200003,-71.8426184341765,16.9340838665));
#741=CARTESIAN_POINT('',(0.91211182200003,-71.8426184341765,25.9340838665));
#742=CARTESIAN_POINT('',(0.91211182200003,-71.8426184341765,25.9340838665));
#743=CARTESIAN_POINT('',(0.91211182200003,-71.8426184341765,16.9340838665));
#744=CARTESIAN_POINT('Origin',(0.91211182200003,-50.,16.9340838665));
#745=CARTESIAN_POINT('',(0.91211182200003,-50.,16.9340838665));
#746=CARTESIAN_POINT('',(0.91211182200003,-50.,25.9340838665));
#747=CARTESIAN_POINT('Origin',(115.456055911,-60.9213092170882,25.9340838665));
#748=CARTESIAN_POINT('Origin',(115.456055911,-60.9213092170882,16.9340838665));
#749=CARTESIAN_POINT('Origin',(-68.,0.,20.4340838665));
#750=CARTESIAN_POINT('',(-73.15,6.30693101560887E-16,16.9340838665));
#751=CARTESIAN_POINT('Origin',(-68.,0.,16.9340838665));
#752=CARTESIAN_POINT('',(-73.15,6.30693101560887E-16,25.9340838665));
#753=CARTESIAN_POINT('',(-73.15,-6.30693101560887E-16,20.4340838665));
#754=CARTESIAN_POINT('Origin',(-68.,0.,25.9340838665));
#755=CARTESIAN_POINT('Origin',(-90.5,38.9711431702997,20.4340838665));
#756=CARTESIAN_POINT('',(-95.65,38.9711431702997,16.9340838665));
#757=CARTESIAN_POINT('Origin',(-90.5,38.9711431702997,16.9340838665));
#758=CARTESIAN_POINT('',(-95.65,38.9711431702997,25.9340838665));
#759=CARTESIAN_POINT('',(-95.65,38.9711431702997,20.4340838665));
#760=CARTESIAN_POINT('Origin',(-90.5,38.9711431702997,25.9340838665));
#761=CARTESIAN_POINT('Origin',(-102.972237073605,60.6509380956449,16.9340838665));
#762=CARTESIAN_POINT('',(-169.702340342689,154.388248917839,16.9340838665));
#763=CARTESIAN_POINT('',(-55.1583962536888,-44.0076819436376,16.9340838665));
#764=CARTESIAN_POINT('',(-169.702340342689,154.388248917839,16.9340838665));
#765=CARTESIAN_POINT('',(-150.786077893522,165.309558134927,16.9340838665));
#766=CARTESIAN_POINT('',(-150.786077893522,165.309558134927,16.9340838665));
#767=CARTESIAN_POINT('',(-36.2421338045217,-33.0863727265493,16.9340838665));
#768=CARTESIAN_POINT('',(-36.2421338045217,-33.0863727265493,16.9340838665));
#769=CARTESIAN_POINT('',(-55.1583962536888,-44.0076819436376,16.9340838665));
#770=CARTESIAN_POINT('Origin',(-169.702340342689,154.388248917839,16.9340838665));
#771=CARTESIAN_POINT('',(-55.1583962536888,-44.0076819436376,25.9340838665));
#772=CARTESIAN_POINT('',(-55.1583962536888,-44.0076819436376,16.9340838665));
#773=CARTESIAN_POINT('',(-169.702340342689,154.388248917839,25.9340838665));
#774=CARTESIAN_POINT('',(-169.702340342689,154.388248917839,25.9340838665));
#775=CARTESIAN_POINT('',(-169.702340342689,154.388248917839,16.9340838665));
#776=CARTESIAN_POINT('Origin',(-150.786077893522,165.309558134927,16.9340838665));
#777=CARTESIAN_POINT('',(-150.786077893522,165.309558134927,25.9340838665));
#778=CARTESIAN_POINT('',(-150.786077893522,165.309558134927,25.9340838665));
#779=CARTESIAN_POINT('',(-150.786077893522,165.309558134927,16.9340838665));
#780=CARTESIAN_POINT('Origin',(-36.2421338045217,-33.0863727265493,16.9340838665));
#781=CARTESIAN_POINT('',(-36.2421338045217,-33.0863727265493,25.9340838665));
#782=CARTESIAN_POINT('',(-36.2421338045217,-33.0863727265493,25.9340838665));
#783=CARTESIAN_POINT('',(-36.2421338045217,-33.0863727265493,16.9340838665));
#784=CARTESIAN_POINT('Origin',(-55.1583962536888,-44.0076819436376,16.9340838665));
#785=CARTESIAN_POINT('',(-55.1583962536888,-44.0076819436376,25.9340838665));
#786=CARTESIAN_POINT('Origin',(-102.972237073605,60.6509380956449,25.9340838665));
#787=UNCERTAINTY_MEASURE_WITH_UNIT(LENGTH_MEASURE(0.01),#791,
'DISTANCE_ACCURACY_VALUE',
'Maximum model space distance between geometric entities at asserted c
onnectivities');
#788=UNCERTAINTY_MEASURE_WITH_UNIT(LENGTH_MEASURE(0.01),#791,
'DISTANCE_ACCURACY_VALUE',
'Maximum model space distance between geometric entities at asserted c
onnectivities');
#789=(
GEOMETRIC_REPRESENTATION_CONTEXT(3)
GLOBAL_UNCERTAINTY_ASSIGNED_CONTEXT((#787))
GLOBAL_UNIT_ASSIGNED_CONTEXT((#791,#793,#794))
REPRESENTATION_CONTEXT('','3D')
);
#790=(
GEOMETRIC_REPRESENTATION_CONTEXT(3)
GLOBAL_UNCERTAINTY_ASSIGNED_CONTEXT((#788))
GLOBAL_UNIT_ASSIGNED_CONTEXT((#791,#793,#794))
REPRESENTATION_CONTEXT('','3D')
);
#791=(
LENGTH_UNIT()
NAMED_UNIT(*)
SI_UNIT(.MILLI.,.METRE.)
);
#792=(
LENGTH_UNIT()
NAMED_UNIT(*)
SI_UNIT($,.METRE.)
);
#793=(
NAMED_UNIT(*)
PLANE_ANGLE_UNIT()
SI_UNIT($,.RADIAN.)
);
#794=(
NAMED_UNIT(*)
SI_UNIT($,.STERADIAN.)
SOLID_ANGLE_UNIT()
);
#795=SHAPE_DEFINITION_REPRESENTATION(#796,#797);
#796=PRODUCT_DEFINITION_SHAPE('',$,#799);
#797=SHAPE_REPRESENTATION('',(#479),#789);
#798=PRODUCT_DEFINITION_CONTEXT('part definition',#803,'design');
#799=PRODUCT_DEFINITION('uhel 120 stupnu','uhel 120 stupnu v4',#800,#798);
#800=PRODUCT_DEFINITION_FORMATION('',$,#805);
#801=PRODUCT_RELATED_PRODUCT_CATEGORY('uhel 120 stupnu v4',
'uhel 120 stupnu v4',(#805));
#802=APPLICATION_PROTOCOL_DEFINITION('international standard',
'automotive_design',2009,#803);
#803=APPLICATION_CONTEXT(
'Core Data for Automotive Mechanical Design Process');
#804=PRODUCT_CONTEXT('part definition',#803,'mechanical');
#805=PRODUCT('uhel 120 stupnu','uhel 120 stupnu v4',$,(#804));
#806=PRESENTATION_STYLE_ASSIGNMENT((#807));
#807=SURFACE_STYLE_USAGE(.BOTH.,#808);
#808=SURFACE_SIDE_STYLE('',(#809));
#809=SURFACE_STYLE_FILL_AREA(#810);
#810=FILL_AREA_STYLE('Steel - Satin',(#811));
#811=FILL_AREA_STYLE_COLOUR('Steel - Satin',#812);
#812=COLOUR_RGB('Steel - Satin',0.627450980392157,0.627450980392157,0.627450980392157);
ENDSEC;
END-ISO-10303-21;
