0
SECTION
2
HEADER
9
$INSUNITS
70
4
0
ENDSEC
0
SECTION
2
TABLES
0
TABLE
2
LAYER
70
6
0
LAYER
2
RAM
70
0
62
7
6
CONTINUOUS
0
LAYER
2
OTVOR
70
0
62
8
6
CONTINUOUS
0
LAYER
2
DESKA
70
0
62
5
6
CONTINUOUS
0
LAYER
2
PASOVINY
70
0
62
9
6
CONTINUOUS
0
LAYER
2
KOTY
70
0
62
3
6
CONTINUOUS
0
LAYER
2
TEXT
70
0
62
2
6
CONTINUOUS
0
ENDTAB
0
ENDSEC
0
SECTION
2
ENTITIES
0
POLYLINE
8
RAM
66
1
70
1
0
VERTEX
8
RAM
10
0
20
0
30
0
0
VERTEX
8
RAM
10
1350
20
0
30
0
0
VERTEX
8
RAM
10
1350
20
40
30
0
0
VERTEX
8
RAM
10
0
20
40
30
0
0
SEQEND
0
POLYLINE
8
RAM
66
1
70
1
0
VERTEX
8
RAM
10
0
20
540
30
0
0
VERTEX
8
RAM
10
1350
20
540
30
0
0
VERTEX
8
RAM
10
1350
20
580
30
0
0
VERTEX
8
RAM
10
0
20
580
30
0
0
SEQEND
0
POLYLINE
8
RAM
66
1
70
1
0
VERTEX
8
RAM
10
0
20
0
30
0
0
VERTEX
8
RAM
10
40
20
0
30
0
0
VERTEX
8
RAM
10
40
20
580
30
0
0
VERTEX
8
RAM
10
0
20
580
30
0
0
SEQEND
0
POLYLINE
8
RAM
66
1
70
1
0
VERTEX
8
RAM
10
1310
20
0
30
0
0
VERTEX
8
RAM
10
1350
20
0
30
0
0
VERTEX
8
RAM
10
1350
20
580
30
0
0
VERTEX
8
RAM
10
1310
20
580
30
0
0
SEQEND
0
POLYLINE
8
RAM
66
1
70
1
0
VERTEX
8
RAM
10
860
20
40
30
0
0
VERTEX
8
RAM
10
900
20
40
30
0
0
VERTEX
8
RAM
10
900
20
540
30
0
0
VERTEX
8
RAM
10
860
20
540
30
0
0
SEQEND
0
POLYLINE
8
PASOVINY
66
1
70
1
0
VERTEX
8
PASOVINY
10
975.0
20
0
30
0
0
VERTEX
8
PASOVINY
10
1015.0
20
0
30
0
0
VERTEX
8
PASOVINY
10
1015.0
20
580
30
0
0
VERTEX
8
PASOVINY
10
975.0
20
580
30
0
0
SEQEND
0
POLYLINE
8
PASOVINY
66
1
70
1
0
VERTEX
8
PASOVINY
10
1195.0
20
0
30
0
0
VERTEX
8
PASOVINY
10
1235.0
20
0
30
0
0
VERTEX
8
PASOVINY
10
1235.0
20
580
30
0
0
VERTEX
8
PASOVINY
10
1195.0
20
580
30
0
0
SEQEND
0
POLYLINE
8
OTVOR
66
1
70
1
0
VERTEX
8
OTVOR
10
900
20
40
30
0
0
VERTEX
8
OTVOR
10
1310
20
40
30
0
0
VERTEX
8
OTVOR
10
1310
20
540
30
0
0
VERTEX
8
OTVOR
10
900
20
540
30
0
0
SEQEND
0
POLYLINE
8
DESKA
66
1
70
1
0
VERTEX
8
DESKA
10
920.0
20
45.0
30
0
0
VERTEX
8
DESKA
10
1290.0
20
45.0
30
0
0
VERTEX
8
DESKA
10
1290.0
20
535.0
30
0
0
VERTEX
8
DESKA
10
920.0
20
535.0
30
0
0
SEQEND
0
LINE
8
KOTY
10
0
20
650
30
0
11
1350
21
650
31
0
0
LINE
8
KOTY
10
0
20
600
30
0
11
0
21
670
31
0
0
LINE
8
KOTY
10
1350
20
600
30
0
11
1350
21
670
31
0
0
TEXT
8
TEXT
10
650
20
665
30
0
40
22
1
1350
50
0
0
LINE
8
KOTY
10
1430
20
0
30
0
11
1430
21
580
31
0
0
LINE
8
KOTY
10
1380
20
0
30
0
11
1450
21
0
31
0
0
LINE
8
KOTY
10
1380
20
580
30
0
11
1450
21
580
31
0
0
TEXT
8
TEXT
10
1460
20
270
30
0
40
22
1
580
50
90
0
LINE
8
KOTY
10
900
20
595
30
0
11
1310
21
595
31
0
0
TEXT
8
TEXT
10
1050.0
20
615
30
0
40
20
1
410 otvor
50
0
0
LINE
8
KOTY
10
1375
20
40
30
0
11
1375
21
540
31
0
0
TEXT
8
TEXT
10
1395
20
235.0
30
0
40
20
1
500 otvor
50
90
0
LINE
8
KOTY
10
920.0
20
0.0
30
0
11
1290.0
21
0.0
31
0
0
TEXT
8
TEXT
10
1050.0
20
-30.0
30
0
40
20
1
370 deska
50
0
0
LINE
8
KOTY
10
870.0
20
45.0
30
0
11
870.0
21
535.0
31
0
0
TEXT
8
TEXT
10
840.0
20
210.0
30
0
40
20
1
490 deska
50
90
0
TEXT
8
TEXT
10
1015.0
20
295.0
30
0
40
24
1
DESKA 490 x 370
50
0
0
TEXT
8
TEXT
10
983.0
20
250
30
0
40
18
1
PASOVINA 580 x 40
50
90
0
TEXT
8
TEXT
10
1203.0
20
250
30
0
40
18
1
PASOVINA 580 x 40
50
90
0
TEXT
8
TEXT
10
0
20
-80
30
0
40
24
1
Sim-Lab P1X Pro - spodni zakladna, deska a pasoviny
50
0
0
TEXT
8
TEXT
10
0
20
-110
30
0
40
18
1
Koty v mm. Koncepcni vykres - pred vyrobou premerit realny ram.
50
0
0
ENDSEC
0
EOF